<svg width="181" height="153" viewBox="0 0 181 153" fill="none" xmlns="http://www.w3.org/2000/svg">
<g clip-path="url(#clip0_9825_175232)">
<path d="M147.41 73.8433C147.41 75.9932 147.32 78.1213 147.14 80.2276C146.998 81.8718 146.804 83.5012 146.558 85.1159C146.297 86.8255 145.977 88.5145 145.598 90.183V90.185C145.351 91.283 145.079 92.3721 144.783 93.4521C143.923 96.5921 142.854 99.6707 141.583 102.667C141.307 103.319 141.021 103.966 140.727 104.609C139.613 107.044 138.366 109.416 136.992 111.713C133.137 118.164 128.325 123.99 122.721 128.991C122.114 129.532 121.5 130.063 120.876 130.585C107.645 141.659 90.9455 147.713 73.7051 147.687C32.9984 147.687 0 114.626 0 73.8433C0 33.0602 32.9984 -0.00015268 73.7051 -0.00015268C90.3519 -0.02645 106.513 5.61885 119.535 16.0089C120.145 16.4935 120.748 16.989 121.343 17.4954C124.246 19.9625 126.956 22.6498 129.448 25.5335H129.45C141.058 38.9389 147.436 56.0967 147.41 73.8433Z" fill="#F2F2F2"/>
<path d="M21.7577 86.599C14.7365 82.4123 9.43708 74.5878 10.1251 66.4309C16.5442 72.5862 24.9296 76.2683 33.7977 76.8257C37.2185 77.0282 41.0443 76.8967 43.5624 79.2253C45.1292 80.6741 45.8586 82.8555 45.9782 84.9883C46.0978 87.1212 45.6714 89.2427 45.2471 91.3362L45.3931 91.8491C37.2224 91.8798 28.779 90.7858 21.7577 86.599Z" fill="#E6E6E6"/>
<path d="M10.2961 66.422C13.1093 72.5838 17.7889 77.7008 23.6702 81.0462C24.9345 81.7552 26.2787 82.3643 27.7071 82.6468C29.1015 82.9114 30.5412 82.7971 31.8767 82.3158C33.1308 81.892 34.3647 81.3131 35.6999 81.2021C37.1072 81.0852 38.41 81.6292 39.4336 82.5819C40.6861 83.7476 41.4458 85.2947 42.1362 86.8335C42.9027 88.542 43.672 90.3287 45.1417 91.5574C45.3198 91.7062 45.0788 91.9744 44.901 91.8257C42.3439 89.6881 41.9265 86.1082 39.8825 83.5907C38.9287 82.416 37.6158 81.5221 36.0561 81.5457C34.6922 81.5663 33.4193 82.1622 32.1531 82.6023C30.8236 83.0643 29.4918 83.2814 28.0882 83.0781C26.6524 82.8701 25.2816 82.3125 24.0047 81.6389C21.1206 80.09 18.4975 78.0963 16.2315 75.7309C13.6305 73.0458 11.507 69.9346 9.95306 66.532C9.85697 66.3214 10.2006 66.2128 10.2961 66.422H10.2961Z" fill="white"/>
<path d="M21.7132 80.0808C21.019 80.9931 20.0237 81.6286 18.905 81.8737C17.7863 82.1187 16.6171 81.9574 15.6062 81.4185C15.402 81.3087 15.5627 80.9857 15.7671 81.0956C16.7075 81.5992 17.7967 81.7493 18.8379 81.519C19.8792 81.2887 20.8039 80.6931 21.4453 79.8396C21.5849 79.6543 21.852 79.8965 21.7132 80.0807L21.7132 80.0808Z" fill="white"/>
<path d="M31.269 82.6146C30.9769 80.2878 29.8201 78.1567 28.0293 76.6464C27.8517 76.4969 28.0926 76.2287 28.27 76.378C30.1306 77.9532 31.3299 80.1733 31.6286 82.5954C31.657 82.8263 31.2972 82.8443 31.269 82.6146V82.6146Z" fill="white"/>
<path d="M14.0773 72.8763C14.4193 72.5794 14.6823 72.202 14.8428 71.778C15.0032 71.354 15.0561 70.8968 14.9966 70.4473C14.9653 70.2169 15.3251 70.1991 15.3562 70.428C15.4196 70.925 15.3607 71.4299 15.1844 71.8987C15.0082 72.3675 14.72 72.786 14.3451 73.1175C14.3124 73.1517 14.2679 73.1722 14.2207 73.1747C14.1734 73.1772 14.127 73.1616 14.0908 73.1311C14.0555 73.099 14.0343 73.0542 14.0318 73.0065C14.0292 72.9588 14.0456 72.9121 14.0773 72.8764V72.8763Z" fill="white"/>
<path d="M32.8523 50.6279C32.8758 50.7712 32.8994 50.9146 32.9257 51.0592C33.2527 52.9843 33.7352 54.8796 34.3685 56.7264C34.4152 56.87 34.4647 57.0148 34.5154 57.1567C36.0886 61.5898 38.4695 65.6917 41.5373 69.254C42.7593 70.6704 44.0872 71.9916 45.5093 73.2061C47.4733 74.8833 49.7361 76.5453 50.9954 78.7109C51.1293 78.9354 51.2492 79.1679 51.3544 79.4072L46.0061 91.6307C45.98 91.6523 45.9566 91.6754 45.9305 91.6972L45.7392 92.195C45.6615 92.1375 45.5822 92.0762 45.5045 92.0187C45.4592 91.9855 45.4152 91.9496 45.37 91.9164C45.3402 91.8934 45.3105 91.8703 45.2823 91.8513C45.2724 91.8437 45.2625 91.8359 45.2554 91.8295C45.2272 91.8105 45.203 91.7898 45.1776 91.772C44.7331 91.4305 44.2901 91.0853 43.8488 90.7363C43.846 90.7351 43.846 90.7351 43.8444 90.7311C40.4885 88.0635 37.3253 85.0918 34.713 81.7336C34.6344 81.6325 34.553 81.5303 34.4769 81.4237C33.3077 79.9034 32.2646 78.2899 31.3578 76.5994C30.8642 75.6721 30.4178 74.7203 30.0204 73.7478C28.9981 71.233 28.3771 68.5727 28.1799 65.8645C27.7878 60.4658 29.1234 55.0014 32.5848 50.9359C32.6734 50.832 32.7609 50.7306 32.8523 50.6279Z" fill="#E6E6E6"/>
<path d="M32.9953 50.7234C31.5386 57.3402 32.2 64.2485 34.8854 70.4672C35.4688 71.796 36.1761 73.0931 37.1468 74.1803C38.1012 75.2327 39.3194 76.0099 40.6749 76.4311C41.931 76.8492 43.2641 77.1313 44.3968 77.848C45.5907 78.6036 46.304 79.8238 46.5488 81.2019C46.8483 82.8882 46.5252 84.5816 46.1517 86.2267C45.7371 88.0533 45.2775 89.9439 45.7127 91.8114C45.7654 92.0377 45.4119 92.1064 45.3592 91.8805C44.6021 88.6313 46.4201 85.5212 46.301 82.2781C46.2454 80.7648 45.7343 79.2592 44.4748 78.3372C43.3734 77.531 41.9989 77.239 40.7235 76.8266C39.3843 76.3935 38.1905 75.7635 37.1919 74.7545C36.1705 73.7224 35.4111 72.4503 34.7964 71.1423C33.4244 68.1658 32.5281 64.9917 32.1403 61.7363C31.6771 58.0234 31.8513 54.2584 32.6553 50.6043C32.7051 50.3782 33.0448 50.4988 32.9953 50.7234Z" fill="white"/>
<path d="M33.9031 68.516C32.8005 68.8257 31.6239 68.7327 30.5835 68.2536C29.543 67.7745 28.7064 66.9404 28.2231 65.9003C28.126 65.6896 28.4484 65.5285 28.5456 65.7396C28.9939 66.7089 29.7732 67.4858 30.743 67.93C31.7128 68.3741 32.8091 68.4564 33.8341 68.1618C34.0569 68.0981 34.1246 68.4526 33.9031 68.516H33.9031Z" fill="white"/>
<path d="M40.01 76.3032C41.1751 74.2691 41.532 71.8698 41.0098 69.5836C40.9579 69.3572 41.3114 69.2884 41.3633 69.5146C41.9023 71.8946 41.5257 74.3907 40.3087 76.5047C40.1926 76.7062 39.8945 76.5035 40.01 76.3032Z" fill="white"/>
<path d="M32.1354 58.1577C32.587 58.1269 33.0238 57.9842 33.4067 57.7425C33.7896 57.5008 34.1066 57.1675 34.3292 56.7727C34.4427 56.5699 34.7406 56.7728 34.6278 56.9743C34.3799 57.4093 34.0294 57.7769 33.6069 58.0449C33.1845 58.313 32.7029 58.4733 32.2044 58.5118C32.1577 58.5194 32.1099 58.5089 32.0706 58.4824C32.0314 58.4559 32.0037 58.4155 31.9932 58.3693C31.9843 58.3224 31.9942 58.2738 32.0209 58.2342C32.0475 58.1946 32.0887 58.1671 32.1354 58.1577V58.1577Z" fill="white"/>
<path d="M51.0561 17.1146L60.0773 122.917L42.0349 124.276V18.4608C44.1848 17.0355 47.271 16.8125 51.0561 17.1146Z" fill="#CCCCCC"/>
<path d="M95.5864 17.1146L86.5652 122.917L104.608 124.276V18.4608C102.458 17.0355 99.3715 16.8125 95.5864 17.1146Z" fill="#CCCCCC"/>
<path d="M101.906 128.649H44.5445C43.6247 128.648 42.7428 128.281 42.0925 127.63C41.4421 126.978 41.0762 126.095 41.0752 125.173V20.0136C41.0762 19.0921 41.4421 18.2086 42.0925 17.557C42.7429 16.9054 43.6247 16.5389 44.5445 16.5378H101.906C102.826 16.5389 103.708 16.9054 104.358 17.557C105.008 18.2086 105.374 19.0921 105.375 20.0136V125.173C105.374 126.095 105.008 126.978 104.358 127.63C103.708 128.281 102.826 128.648 101.906 128.649ZM44.5445 17.6916C43.93 17.6923 43.3409 17.9372 42.9064 18.3725C42.4719 18.8078 42.2275 19.398 42.2268 20.0136V125.173C42.2275 125.789 42.4719 126.379 42.9064 126.814C43.3409 127.25 43.93 127.495 44.5445 127.495H101.906C102.52 127.495 103.11 127.25 103.544 126.814C103.979 126.379 104.223 125.789 104.224 125.173V20.0136C104.223 19.398 103.979 18.8078 103.544 18.3725C103.11 17.9372 102.52 17.6923 101.906 17.6916L44.5445 17.6916Z" fill="#CCCCCC"/>
<path d="M104.8 34.0371H41.6511V35.1909H104.8V34.0371Z" fill="#CCCCCC"/>
<path d="M104.8 53.2673H41.6511V54.4211H104.8V53.2673Z" fill="#CCCCCC"/>
<path d="M62.1433 17.1147H60.9917V69.6128H62.1433V17.1147Z" fill="#CCCCCC"/>
<path d="M85.4588 17.1147H84.3071V69.6128H85.4588V17.1147Z" fill="#CCCCCC"/>
<path d="M111.997 131.822H36.3728C34.9984 131.822 33.6802 131.275 32.7083 130.301C31.7364 129.328 31.1904 128.007 31.1904 126.63C31.1904 125.253 31.7364 123.932 32.7083 122.958C33.6802 121.985 34.9984 121.438 36.3728 121.438H111.997C113.372 121.438 114.69 121.985 115.662 122.958C116.634 123.932 117.18 125.253 117.18 126.63C117.18 128.007 116.634 129.328 115.662 130.301C114.69 131.275 113.372 131.822 111.997 131.822Z" fill="#CCCCCC"/>
<path d="M104.799 66.9207H42.0349V70.7667H104.799V66.9207Z" fill="#CCCCCC"/>
<path d="M62.322 79.1607L62.2423 79.1222C57.9637 77.0514 52.3607 77.0533 44.0746 79.129L43.9861 79.1511L43.9596 79.0636C43.083 76.1841 42.09 72.9227 43.9554 71.3181C43.9816 66.6095 48.1041 62.7861 53.1677 62.7861C58.2303 62.7861 62.3523 66.6075 62.3799 71.3149C65.1549 73.4405 63.8324 76.5816 62.3668 79.0843L62.322 79.1607Z" fill="#2F2E41"/>
<path d="M88.62 69.0782C88.5433 69.4597 88.384 69.8198 88.1534 70.133C87.9227 70.4462 87.6264 70.7049 87.2852 70.8909C86.9439 71.077 86.5661 71.1858 86.1784 71.2097C85.7906 71.2336 85.4024 71.1721 85.0409 71.0294L69.9203 86.2528L68.5713 81.5259L83.5888 67.3889C83.8683 66.7965 84.355 66.3273 84.9567 66.0704C85.5583 65.8134 86.2332 65.7865 86.8533 65.9947C87.4735 66.2029 87.9958 66.6318 88.3214 67.2001C88.647 67.7684 88.7533 68.4366 88.62 69.0782L88.62 69.0782Z" fill="#FFB6B6"/>
<path d="M51.2496 83.7339C51.2496 83.7339 49.8777 86.8485 53.2627 88.7693C56.6477 90.6901 68.4783 88.0364 70.398 87.6658C72.3176 87.2953 79.4873 76.5456 79.4873 76.5456L78.4735 71.2737L68.9648 79.5435L51.2496 83.7339Z" fill="#6C63FF"/>
<path d="M48.7529 100.958L48.9449 104.612C48.9449 104.612 48.3783 107.848 48.8443 108.547C49.3067 109.241 61.9251 109.329 61.9251 109.329C61.9251 109.329 62.7588 104.826 63.477 100.885L48.7529 100.958Z" fill="#FFB6B6"/>
<path d="M85.0324 149.268L87.6704 148.734L86.9153 138.059L83.022 138.846L85.0324 149.268Z" fill="#FFB6B6"/>
<path d="M88.811 135.375L91.2634 134.271L88.082 124.056L84.4624 125.687L88.811 135.375Z" fill="#FFB6B6"/>
<path d="M90.9473 129.62L86.3297 132.24L74.9414 113.905C66.9469 119.302 59.1291 121.886 51.2482 123.265C48.5837 123.74 45.8671 123.499 45.3555 120.782C45.3316 120.655 45.3125 120.527 45.2983 120.399C44.9837 117.431 48.6685 113.627 49.1369 109.996L59.2215 109.389L60.4651 110.987L72.1276 103.803C74.473 102.359 77.5578 103.14 79.0176 105.548C79.0947 105.676 79.1663 105.806 79.2323 105.939L90.9473 129.62Z" fill="#2F2E41"/>
<path d="M88.1209 141.954L82.8371 142.446L73.2567 122.815C63.7566 124.452 54.794 124.977 47.0418 122.997C44.417 122.335 42.8126 119.62 43.4582 116.932C43.4884 116.806 43.5233 116.682 43.5629 116.559C44.4907 113.723 46.9193 111.716 48.8328 108.597L62.8093 108.81L61.2482 114.206L74.8254 112.446C77.5558 112.092 80.0494 114.072 80.395 116.868C80.4133 117.016 80.4252 117.164 80.4308 117.313L88.1209 141.954Z" fill="#2F2E41"/>
<path d="M54.2102 76.3698C57.3445 76.3698 59.8854 73.8242 59.8854 70.6839C59.8854 67.5437 57.3445 64.998 54.2102 64.998C51.0758 64.998 48.5349 67.5437 48.5349 70.6839C48.5349 73.8242 51.0758 76.3698 54.2102 76.3698Z" fill="#FFB6B6"/>
<path d="M50.883 78.4224L56.0867 79.0357C56.3061 79.0616 56.512 79.1554 56.6757 79.3041C56.8394 79.4527 56.9528 79.6489 56.9999 79.8651L57.8275 83.659L62.9862 89.7455C62.9862 89.7455 64.8386 93.2253 64.144 97.1692C63.4493 101.113 63.1441 104.043 63.1441 104.043C63.1441 104.043 49.3059 109.242 48.8428 108.546C48.3797 107.85 48.2294 104.688 48.2294 104.688L46.377 84.0413C46.377 84.0413 48.461 80.5615 49.6187 80.5615C50.366 80.5362 50.2701 78.8513 50.883 78.4224Z" fill="#6C63FF"/>
<path d="M63.2849 105.313C64.0146 105.313 64.6062 104.602 64.6062 103.724C64.6062 102.847 64.0146 102.136 63.2849 102.136C62.5552 102.136 61.9636 102.847 61.9636 103.724C61.9636 104.602 62.5552 105.313 63.2849 105.313Z" fill="#6C63FF"/>
<path d="M83.7231 146.519L87.745 144.5L88.503 146.271L93.5887 147.301C93.8399 147.352 94.0683 147.482 94.2406 147.672C94.4128 147.862 94.5199 148.103 94.5462 148.358C94.5725 148.613 94.5166 148.871 94.3867 149.092C94.2568 149.313 94.0597 149.487 93.8242 149.588L88.9103 151.699L87.3135 150.31L87.7326 152.204L85.8799 153L83.7231 146.519Z" fill="#2F2E41"/>
<path d="M87.6599 134.525L91.6457 132.436L92.4347 134.194L97.5377 135.134C97.7898 135.18 98.0204 135.306 98.196 135.493C98.3715 135.68 98.4828 135.919 98.5136 136.173C98.5444 136.428 98.493 136.686 98.367 136.91C98.241 137.134 98.047 137.311 97.8133 137.416L92.9372 139.613L91.3163 138.252L91.7686 140.139L89.9301 140.967L87.6599 134.525Z" fill="#2F2E41"/>
<path d="M50.9677 68.9003C49.4684 68.9028 48.005 68.4402 46.7785 67.5762L46.7375 67.5475V67.4974C46.7392 66.0444 47.3161 64.6513 48.3416 63.6239C49.3671 62.5964 50.7575 62.0185 52.2078 62.0168H54.5111C55.9614 62.0185 57.3519 62.5964 58.3774 63.6239C59.4029 64.6513 59.9798 66.0444 59.9814 67.4974C59.9799 67.83 59.8488 68.1488 59.6162 68.386C59.3835 68.6232 59.0676 68.76 58.7357 68.7673L51.0972 68.8992C51.0541 68.9 51.0108 68.9003 50.9677 68.9003Z" fill="#2F2E41"/>
<path d="M60.3652 66.4449C61.0996 66.0201 61.2224 64.8555 60.6393 63.8438C60.0563 62.8321 58.9883 62.3563 58.2539 62.7811C57.5194 63.2059 57.3967 64.3705 57.9797 65.3822C58.5628 66.3939 59.6308 66.8697 60.3652 66.4449Z" fill="#2F2E41"/>
<path d="M48.8789 65.3161C49.7034 64.49 49.8857 63.3333 49.286 62.7326C48.6864 62.1318 47.5318 62.3144 46.7073 63.1405C45.8828 63.9666 45.7005 65.1233 46.3001 65.724C46.8998 66.3248 48.0543 66.1422 48.8789 65.3161Z" fill="#2F2E41"/>
<path d="M99.1062 117.303H93.4416C93.3138 117.303 93.1875 117.331 93.0715 117.385C92.9555 117.438 92.8526 117.517 92.7701 117.614C92.5611 117.576 92.346 117.588 92.1425 117.649C91.939 117.71 91.7528 117.818 91.5992 117.965C91.4456 118.112 91.329 118.294 91.2589 118.495C91.1889 118.695 91.1674 118.91 91.1963 119.121C91.2251 119.332 91.3035 119.533 91.4249 119.708C91.5463 119.882 91.7074 120.025 91.8948 120.126C92.0822 120.226 92.2907 120.28 92.5031 120.284C92.7155 120.288 92.9257 120.241 93.1166 120.148L93.5865 121.677C93.6421 121.859 93.7543 122.017 93.9066 122.13C94.0589 122.243 94.2432 122.303 94.4325 122.303H98.1154C98.3047 122.303 98.489 122.242 98.6413 122.13C98.7935 122.017 98.9057 121.859 98.9614 121.677L99.9523 118.451C99.993 118.318 100.002 118.178 99.9788 118.041C99.9555 117.904 99.9005 117.775 99.8182 117.663C99.7359 117.552 99.6286 117.461 99.505 117.399C99.3813 117.336 99.2448 117.303 99.1062 117.303ZM92.5311 119.9C92.2765 119.9 92.0324 119.798 91.8524 119.618C91.6725 119.438 91.5714 119.193 91.5714 118.938C91.5714 118.683 91.6725 118.438 91.8524 118.258C92.0324 118.078 92.2765 117.977 92.5311 117.977C92.5486 117.977 92.5649 117.981 92.5822 117.982C92.5441 118.136 92.5487 118.299 92.5956 118.451L93.001 119.771C92.8582 119.854 92.6962 119.898 92.5311 119.9Z" fill="#3F3D56"/>
<path d="M73.8112 113.129C73.4243 113.165 73.0344 113.115 72.6687 112.984C72.3031 112.852 71.9707 112.642 71.6949 112.368C71.4191 112.094 71.2067 111.763 71.0725 111.397C70.9384 111.032 70.8858 110.642 70.9185 110.254L52.0242 100.11L56.1568 97.4587L73.9829 107.816C74.6295 107.914 75.2177 108.246 75.6361 108.75C76.0544 109.254 76.2738 109.894 76.2526 110.549C76.2314 111.204 75.9712 111.828 75.5212 112.304C75.0713 112.779 74.4628 113.073 73.8112 113.129Z" fill="#FFB6B6"/>
<path d="M49.0757 81.4674C49.0757 81.4674 45.704 81.0444 44.8387 84.8443C43.9733 88.6441 49.9051 99.2372 50.8101 100.973C51.7152 102.709 64.0508 106.506 64.0508 106.506L68.8007 104.021L58.1652 97.2674L49.0757 81.4674Z" fill="#6C63FF"/>
<path d="M72.8413 65.7668H73.993C74.5529 65.7668 75.09 65.9897 75.4859 66.3864C75.8819 66.7831 76.1043 67.3211 76.1043 67.8822H70.73C70.73 67.3211 70.9524 66.7831 71.3484 66.3864C71.7443 65.9897 72.2814 65.7668 72.8413 65.7668Z" fill="#CCCCCC"/>
<path d="M36.3231 26.3001C42.6243 26.3001 47.7324 21.1824 47.7324 14.8694C47.7324 8.55642 42.6243 3.43872 36.3231 3.43872C30.0219 3.43872 24.9138 8.55642 24.9138 14.8694C24.9138 21.1824 30.0219 26.3001 36.3231 26.3001Z" fill="#FF6584"/>
<path d="M71.2556 14.2736C68.2361 11.1002 64.7293 8.20517 60.578 6.67535C59.4216 6.2474 58.2226 5.94552 57.0016 5.77494C56.9918 5.77359 56.9825 5.77558 56.9728 5.77479C56.9529 5.76966 56.9327 5.7657 56.9124 5.76292C55.2048 5.54498 53.4716 5.64981 51.8026 6.072C50.9864 6.2772 50.1901 6.5551 49.4233 6.90238C48.6538 7.27849 47.9083 7.70182 47.1908 8.16997C45.6723 9.08067 44.0003 9.70557 42.2575 10.0139C41.3826 10.1717 40.4966 10.2588 39.6078 10.2744C38.8366 10.2899 38.1094 10.3167 37.3787 10.5959C36.5983 10.8899 35.8972 11.3626 35.3315 11.9763C34.7657 12.5901 34.351 13.3277 34.1204 14.1305C34.1026 14.202 34.108 14.2773 34.1357 14.3456C34.1634 14.4138 34.2121 14.4715 34.2746 14.5102C34.4722 14.652 34.6649 14.8129 34.8726 14.9393C35.0573 15.024 35.2546 15.0779 35.4567 15.0989C35.7868 15.1687 36.1174 15.2364 36.4484 15.3022C37.6677 15.5442 38.8922 15.7585 40.1216 15.945C42.6095 16.3223 45.1107 16.5881 47.6254 16.7423C52.6631 17.048 57.718 16.8958 62.7283 16.2876C65.544 15.9459 68.3407 15.4612 71.1075 14.8355C71.1635 14.8191 71.2143 14.7885 71.2551 14.7466C71.2958 14.7047 71.325 14.653 71.3399 14.5965C71.3548 14.5399 71.3549 14.4805 71.3401 14.4239C71.3253 14.3674 71.2962 14.3156 71.2556 14.2736Z" fill="#E6E6E6"/>
<path d="M36.8646 21.9163C35.7082 21.4884 34.5092 21.1865 33.2882 21.0159C33.2784 21.0146 33.2691 21.0165 33.2594 21.0158C33.2395 21.0106 33.2194 21.0067 33.199 21.0039C31.4914 20.7859 29.7582 20.8908 28.0892 21.313C27.273 21.5182 26.4767 21.7961 25.71 22.1433C24.9405 22.5195 24.1949 22.9428 23.4774 23.4109C21.9589 24.3216 20.287 24.9465 18.5441 25.2548C17.6693 25.4126 16.7832 25.4998 15.8944 25.5154C15.1233 25.5309 14.396 25.5577 13.6654 25.8368C12.8849 26.1309 12.1838 26.6036 11.6181 27.2173C11.0524 27.831 10.6376 28.5687 10.407 29.3715C10.3892 29.443 10.3946 29.5183 10.4223 29.5865C10.45 29.6548 10.4987 29.7124 10.5612 29.7512C10.7589 29.893 10.9516 30.0539 11.1592 30.1802C11.3439 30.265 11.5412 30.3189 11.7433 30.3398C12.0735 30.4096 12.404 30.4774 12.735 30.5431C13.9544 30.7852 15.1788 30.9994 16.4083 31.1859C18.8961 31.5632 21.3973 31.829 23.912 31.9833C28.9497 32.289 34.0046 32.1368 39.0149 31.5285C41.8307 31.1868 44.6273 30.7022 47.3941 30.0765C47.4501 30.0601 47.501 30.0294 47.5417 29.9876C47.5824 29.9457 47.6116 29.894 47.6265 29.8374C47.6414 29.7809 47.6415 29.7215 47.6267 29.6649C47.6119 29.6083 47.5828 29.5565 47.5422 29.5146C44.5227 26.3411 41.016 23.4461 36.8646 21.9163Z" fill="#E6E6E6"/>
<path d="M119.142 107.13L110.368 95.5825L103.445 99.5043L118.115 116.958L119.142 107.13Z" fill="#3F3D56"/>
<path d="M139.353 88.3584C139.547 93.1978 140.296 97.9989 141.583 102.667C141.306 103.319 141.021 103.967 140.727 104.61C139.613 107.045 138.366 109.416 136.992 111.713C133.137 118.164 128.325 123.99 122.721 128.991C122.114 129.532 121.5 130.063 120.876 130.586C117.324 125.678 115.406 120.263 114.648 114.69C114.552 113.982 114.473 113.267 114.414 112.556V112.552C114.268 110.823 114.221 109.086 114.274 107.352C114.276 107.213 114.279 107.073 114.285 106.933C114.352 105.079 114.519 103.221 114.771 101.381V101.379C114.8 101.168 114.828 100.956 114.861 100.744C114.953 100.11 115.057 99.4753 115.17 98.8445C115.829 95.2068 116.749 91.6214 117.922 88.1161V88.1142C117.955 88.0122 117.988 87.9122 118.024 87.8123C118.151 87.4315 118.279 87.0546 118.412 86.6777C118.42 86.6482 118.43 86.6192 118.443 86.5912C118.613 86.0989 118.788 85.6104 118.967 85.1258C119.015 84.9912 119.064 84.8566 119.116 84.722C119.318 84.1816 119.523 83.6451 119.732 83.1163C119.798 82.9471 119.865 82.7778 119.932 82.6105C119.984 82.4817 120.034 82.3528 120.087 82.2259V82.224C120.393 81.4683 120.702 80.7273 121.015 80.001C121.892 77.9588 122.794 76.0377 123.673 74.2666L123.675 74.2647C127.324 66.9323 130.64 62.1709 130.64 62.1709L143.095 66.2092C141.61 68.8495 140.46 72.7436 139.83 77.3376C139.345 80.9891 139.185 84.6766 139.353 88.3565L139.353 88.3584Z" fill="#3F3D56"/>
<path d="M118.652 87.1833C118.579 87.0121 118.496 86.8448 118.412 86.6775C117.974 85.8282 117.41 85.0502 116.74 84.3699C116.64 84.268 116.537 84.1661 116.429 84.0699C115.273 83.003 113.867 82.2453 112.341 81.8669C110.816 81.4884 109.219 81.5014 107.7 81.9046L107.692 81.9085L107.634 81.9238L107.648 81.9892C107.705 82.2939 107.789 82.593 107.897 82.8834C107.926 82.9623 107.959 83.0373 107.991 83.1123C108.005 83.1469 108.022 83.1776 108.038 83.2123C108.038 83.2123 108.036 83.2142 108.039 83.2142C108.039 83.2161 108.041 83.218 108.041 83.2199C108.078 83.2911 108.112 83.3642 108.151 83.4334C108.072 83.3584 107.997 83.2815 107.924 83.2026C107.853 83.1296 107.788 83.0526 107.723 82.9757C107.499 82.7143 107.297 82.4352 107.118 82.1411L107.087 82.0892L107.034 82.1104C106.309 82.3618 105.618 82.7009 104.976 83.12L104.907 83.1661C104.417 83.4887 103.864 83.7044 103.285 83.7991C102.706 83.8939 102.113 83.8656 101.546 83.7161C100.652 83.485 99.719 83.4428 98.8073 83.5921C97.8957 83.7414 97.025 84.079 96.2505 84.5834C95.7375 84.9185 95.2736 85.3236 94.8724 85.7872C94.8378 85.8275 94.8032 85.8699 94.7687 85.9102C94.6958 85.9987 94.6267 86.0891 94.5595 86.1814C93.838 87.1475 93.3951 88.2937 93.2792 89.4947L93.2754 89.539L93.3119 89.564C93.9613 90.0099 94.6959 90.3163 95.4693 90.4639C94.9835 90.5319 94.4915 90.5441 94.0029 90.5005H94.0009C93.7793 90.4821 93.5589 90.4513 93.3407 90.4082L93.3004 90.4005H93.2984L93.2485 90.3908L93.2562 90.4831C93.3135 91.6582 93.6826 92.7966 94.3253 93.7811L94.3445 93.808C94.3516 93.8178 94.358 93.8281 94.3637 93.8388C94.636 94.2561 94.8625 94.7016 95.0393 95.1676C95.4881 96.3256 95.5869 97.5902 95.3234 98.804C95.0253 100.102 95.1244 101.46 95.6078 102.701C96.0912 103.942 96.9365 105.009 98.0336 105.761C98.9973 106.426 100.12 106.821 101.287 106.906C101.446 106.919 101.608 106.927 101.769 106.927C102.692 106.93 103.605 106.739 104.45 106.367L104.481 106.356L104.489 106.321C104.651 105.796 104.879 105.293 105.168 104.825C105.074 105.194 105.026 105.573 105.026 105.954V106.081L105.135 106.017C105.229 105.961 105.325 105.902 105.412 105.846C105.93 105.507 106.4 105.098 106.807 104.631C106.967 104.446 107.128 104.267 107.297 104.088L107.299 104.087C107.627 103.737 107.974 103.394 108.335 103.067C109.103 102.377 109.924 101.748 110.792 101.189C111.659 100.631 112.565 100.137 113.504 99.7117H113.506C113.611 99.6617 113.719 99.6136 113.825 99.5674C114.292 99.3636 114.742 99.1217 115.17 98.8444C115.185 98.8348 115.199 98.8271 115.212 98.8175C117.068 97.6003 118.432 95.7629 119.062 93.6324C119.692 91.5019 119.546 89.2165 118.652 87.1833L118.652 87.1833Z" fill="#6C63FF"/>
<path opacity="0.15" d="M95.6395 101.534C95.5871 101.768 95.5474 102.005 95.5206 102.243C95.1633 101.111 95.1115 99.9052 95.3705 98.7473C95.4105 98.5701 95.4404 98.3909 95.4639 98.2107C95.8186 99.2828 95.8792 100.431 95.6395 101.534Z" fill="black"/>
<path opacity="0.15" d="M95.7848 93.1929C95.2163 93.272 94.6397 93.2748 94.0705 93.2011C93.9213 92.9194 93.7926 92.6273 93.6853 92.3271C94.3191 92.7557 95.0335 93.0503 95.7848 93.1929Z" fill="black"/>
<path opacity="0.15" d="M94.0249 90.4388C93.8151 90.9765 93.6756 91.5392 93.6101 92.1128C93.4349 91.5665 93.3315 90.9996 93.3025 90.4266L93.2979 90.3342L93.3884 90.3518C93.599 90.3915 93.8114 90.4205 94.0249 90.4388Z" fill="black"/>
<path opacity="0.15" d="M96.2999 84.5262C97.0735 84.0211 97.9437 83.683 98.8549 83.5335C99.7662 83.384 100.699 83.4264 101.593 83.6579C102.16 83.8082 102.753 83.837 103.332 83.7423C103.912 83.6477 104.465 83.4318 104.955 83.1087L105.025 83.063C105.666 82.6429 106.357 82.303 107.081 82.051L107.136 82.0319L107.167 82.0819C107.453 82.5562 107.8 82.9909 108.198 83.3752C107.956 82.9232 107.787 82.4358 107.696 81.9309L107.683 81.8644L107.748 81.847C109.173 81.4691 110.668 81.4341 112.109 81.7449C113.55 82.0557 114.897 82.7034 116.041 83.6353C117.185 84.5671 118.092 85.7566 118.69 87.1068C119.287 88.457 119.558 89.9295 119.479 91.4044C119.177 90.202 118.639 89.0717 117.898 88.0789C117.156 87.0862 116.226 86.2507 115.159 85.621C114.093 84.9912 112.913 84.5797 111.687 84.4103C110.461 84.2409 109.214 84.3169 108.017 84.634L107.952 84.6513L107.965 84.7179C108.056 85.2228 108.225 85.7102 108.467 86.1622C108.069 85.7779 107.722 85.3431 107.435 84.8689L107.405 84.8188L107.35 84.838C106.626 85.09 105.935 85.4299 105.294 85.8499L105.224 85.8957C104.734 86.2188 104.181 86.4347 103.601 86.5293C103.022 86.6239 102.429 86.5951 101.861 86.4448C100.376 86.0585 98.802 86.2006 97.4089 86.8467C96.0159 87.4929 94.8897 88.6032 94.2223 89.9882C93.9252 89.8452 93.6372 89.684 93.3599 89.5055L93.3223 89.4816L93.3267 89.4373C93.4222 88.4475 93.7391 87.492 94.2538 86.6418C94.7686 85.7916 95.4679 85.0685 96.2999 84.5262Z" fill="black"/>
<path d="M167.656 35.391L167.474 35.2699L167.341 35.443C166.316 36.7359 165.501 38.1824 164.925 39.7293C165.004 37.9472 165.315 36.1831 165.85 34.4815L165.908 34.3026L165.742 34.2084C163.595 32.99 161.307 32.0394 158.929 31.3777L158.669 31.3085C156.847 30.8075 155.15 29.9272 153.69 28.7251C152.23 27.523 151.039 26.026 150.195 24.3318C148.234 20.4436 145.136 17.2471 141.315 15.1687C137.493 13.0903 133.13 12.2289 128.807 12.6996H128.805C128.759 12.7034 128.711 12.7092 128.665 12.715C128.587 12.7227 128.51 12.7323 128.433 12.7419C128.276 12.763 128.122 12.7842 127.969 12.8073C127.838 12.8265 127.706 12.8476 127.575 12.8707C127.506 12.8803 127.439 12.8919 127.372 12.9053C127.304 12.9169 127.235 12.9284 127.168 12.9419H127.166C125.878 13.1861 124.614 13.5498 123.393 14.0284H123.391V14.0303L123.082 14.1514C122.763 14.2822 122.447 14.4207 122.134 14.5668C122.063 14.5995 121.993 14.6341 121.922 14.6668C121.903 14.6764 121.882 14.686 121.863 14.6976C121.661 14.7937 121.462 14.8937 121.264 14.9995C121.235 15.0129 121.207 15.0283 121.178 15.0437L120.993 15.1418C120.588 15.361 120.191 15.5937 119.8 15.8398C119.767 15.8591 119.736 15.8783 119.704 15.8994C119.669 15.9225 119.633 15.9456 119.598 15.9687C119.577 15.9802 119.556 15.9956 119.535 16.0091C119.475 16.0456 119.418 16.0841 119.36 16.1244C119.245 16.1994 119.13 16.2764 119.016 16.3552C118.899 16.434 118.784 16.5167 118.669 16.5994L118.554 16.6821L118.575 16.8244C118.594 16.9417 118.612 17.059 118.633 17.1744C118.652 17.2898 118.671 17.4032 118.692 17.5167C118.725 17.7071 118.761 17.8955 118.798 18.0782C118.823 18.1994 118.846 18.3186 118.873 18.4359C118.897 18.557 118.924 18.6782 118.953 18.7993C119.009 19.0493 119.068 19.2916 119.132 19.5301C119.162 19.6493 119.195 19.7685 119.23 19.8858C119.249 19.957 119.268 20.0281 119.289 20.0974C119.304 20.1454 119.32 20.1935 119.335 20.2416C119.339 20.257 119.343 20.2743 119.349 20.2916C119.353 20.3079 119.358 20.3239 119.364 20.3397C119.385 20.4108 119.406 20.4801 119.427 20.5474C119.439 20.5839 119.45 20.6204 119.464 20.655C119.491 20.7377 119.519 20.8223 119.548 20.9031C119.579 20.9954 119.612 21.0877 119.644 21.1781C119.652 21.2012 119.659 21.2223 119.667 21.2454C119.673 21.2627 119.679 21.28 119.686 21.2973C119.694 21.3166 119.702 21.3377 119.709 21.3569C119.742 21.4435 119.775 21.5319 119.809 21.6185C119.821 21.6492 119.832 21.6819 119.846 21.7127C120.157 22.4961 120.539 23.2492 120.988 23.9626C120.491 23.5357 120.012 23.0832 119.552 22.605C118.842 21.8656 118.187 21.0743 117.594 20.2377C117.546 20.1724 117.498 20.1051 117.454 20.0378C117.364 19.9089 117.276 19.7801 117.189 19.6493C117.097 19.5147 117.009 19.3743 116.922 19.2359C116.865 19.1436 116.807 19.0493 116.752 18.957C116.696 18.8686 116.644 18.782 116.594 18.6936L116.445 18.4359H116.443V18.4378L116.231 18.6455C116.147 18.7282 116.063 18.8109 115.98 18.8936C113.4 21.4941 111.532 24.7158 110.554 28.249L110.525 28.3547L110.496 28.4644C110.441 28.6605 110.385 28.8509 110.325 29.0451V29.047C110.268 29.2393 110.206 29.4316 110.141 29.6201C110.082 29.7989 110.02 29.9758 109.955 30.1528C109.934 30.2124 109.911 30.272 109.886 30.3316C109.846 30.447 109.801 30.5604 109.757 30.6758C109.736 30.7277 109.715 30.7816 109.694 30.8335C109.642 30.9604 109.59 31.0873 109.538 31.2123C109.531 31.2316 109.521 31.2527 109.512 31.2719C109.496 31.3104 109.479 31.3489 109.464 31.3854C109.423 31.4777 109.381 31.5719 109.341 31.6642C109.312 31.7239 109.285 31.7854 109.258 31.845C109.247 31.8719 109.233 31.8988 109.222 31.9258C109.151 32.0796 109.078 32.2315 109.001 32.3815C108.915 32.5584 108.826 32.7354 108.732 32.9084C108.65 33.07 108.563 33.2277 108.473 33.3853C108.318 33.6642 108.155 33.9411 107.986 34.2103C107.92 34.3142 107.855 34.418 107.788 34.5218C107.773 34.5468 107.757 34.5718 107.742 34.5949C107.686 34.6853 107.629 34.7718 107.569 34.8603C107.529 34.9199 107.489 34.9795 107.448 35.0372C107.381 35.141 107.31 35.241 107.237 35.3391C107.218 35.3699 107.197 35.3987 107.176 35.4276C107.068 35.5776 106.961 35.7237 106.851 35.8699C106.847 35.8718 106.847 35.8737 106.846 35.8756C106.842 35.8756 106.842 35.8776 106.84 35.8795C106.792 35.9429 106.744 36.0064 106.694 36.0679C106.629 36.1583 106.558 36.2468 106.487 36.3333C106.371 36.4795 106.251 36.6275 106.128 36.7718C106.124 36.7756 106.122 36.7794 106.118 36.7814C105.482 37.53 104.793 38.2318 104.057 38.8813C104.043 38.8928 104.034 38.9044 104.02 38.914C103.917 39.0044 103.813 39.0947 103.705 39.1832C103.661 39.2197 103.617 39.2563 103.573 39.2928C103.5 39.3544 103.425 39.4159 103.352 39.4717C103.344 39.4805 103.334 39.4882 103.323 39.4947C103.258 39.5486 103.195 39.5986 103.13 39.6486C103.051 39.712 102.972 39.7716 102.892 39.8313C102.512 40.1197 102.121 40.3921 101.721 40.6485C101.661 40.6889 101.598 40.7293 101.536 40.7678C101.5 40.7908 101.464 40.8139 101.429 40.8331C101.283 40.9235 101.137 41.012 100.991 41.0966C100.846 41.1831 100.696 41.2658 100.548 41.3466C100.231 41.5197 99.9184 41.7004 99.6132 41.8889C99.4597 41.985 99.3061 42.0812 99.1545 42.1792C98.5518 42.5716 97.9715 42.9914 97.4136 43.4388C96.8558 43.8865 96.3209 44.3621 95.8109 44.8638C95.7476 44.9253 95.6842 44.9888 95.6209 45.0541C95.4942 45.1791 95.3714 45.3061 95.2543 45.433C95.0662 45.6272 94.8857 45.8272 94.7073 46.0291C93.766 47.0991 92.9327 48.2599 92.2197 49.4944C91.8617 50.1108 91.5362 50.7456 91.2447 51.3962C91.0239 51.8827 90.8224 52.3808 90.64 52.8846C90.5191 53.2211 90.4059 53.5609 90.3003 53.9038C90.2485 54.075 90.1986 54.248 90.1506 54.4211C89.9874 55.0076 89.8512 55.5999 89.7398 56.1941C89.6496 56.671 89.5767 57.1486 89.521 57.6267C89.4922 57.8671 89.4692 58.1075 89.4481 58.3459C89.3987 58.932 89.3734 59.5187 89.3724 60.1059C89.3689 61.8676 89.5826 63.623 90.0085 65.3322C90.1026 65.7091 90.2069 66.0841 90.3214 66.4572C90.379 66.6437 90.4404 66.8283 90.5018 67.0129C90.6573 67.4745 90.8294 67.9315 91.0182 68.384C91.1314 68.6552 91.2504 68.9244 91.3752 69.1917C92.1681 70.891 93.1799 72.4788 94.3848 73.9146C94.5825 74.1511 94.7866 74.3838 94.9971 74.6127C94.999 74.6127 94.9971 74.6146 94.9971 74.6146C95.5194 75.1853 96.0724 75.7271 96.6535 76.2376H96.6554C96.8877 76.4433 97.1238 76.6427 97.3637 76.8356C97.3656 76.8337 97.3656 76.8356 97.3656 76.8356C97.6075 77.0318 97.8512 77.2202 98.1007 77.4029C98.2255 77.4933 98.3522 77.5837 98.4808 77.6741C98.7322 77.8529 98.9888 78.0253 99.2505 78.1914H99.2524C99.5134 78.3606 99.7783 78.5221 100.047 78.676C100.586 78.9856 101.139 79.2759 101.707 79.5394L101.803 79.5836L101.901 79.5394C102.812 79.1287 103.751 78.7836 104.711 78.5067C104.922 78.4452 105.135 78.3894 105.347 78.3356C105.88 78.2029 106.418 78.0914 106.959 78.001C106.431 78.266 105.922 78.5661 105.435 78.899C105.057 79.1548 104.684 79.4336 104.31 79.7413C104.185 79.8432 104.061 79.949 103.936 80.0567L103.625 80.3259L104.014 80.4548C104.156 80.5009 104.299 80.5471 104.441 80.5894C104.634 80.6509 104.826 80.7067 105.014 80.7586C105.425 80.874 105.839 80.9759 106.254 81.0643C106.356 81.0855 106.456 81.1067 106.558 81.1278C106.755 81.1663 106.955 81.2047 107.155 81.2393C107.163 81.2414 107.171 81.2427 107.18 81.2432C107.387 81.2778 107.596 81.3105 107.803 81.3393C108.189 81.3951 108.575 81.4393 108.961 81.472C109.003 81.4778 109.045 81.4797 109.089 81.4816C109.183 81.4893 109.276 81.497 109.37 81.5028C109.577 81.5162 109.786 81.5259 109.995 81.5336C110.011 81.5336 110.024 81.5355 110.039 81.5355C110.145 81.5393 110.251 81.5432 110.356 81.5451C110.356 81.5451 110.356 81.547 110.358 81.5451C110.464 81.547 110.569 81.5489 110.675 81.5489H111.258C111.368 81.5489 111.477 81.5509 111.588 81.5509C111.742 81.5509 111.897 81.5528 112.051 81.5547C112.091 81.5547 112.134 81.5566 112.176 81.5566C112.421 81.5605 112.667 81.5662 112.913 81.572C112.928 81.572 112.944 81.5739 112.959 81.5739C113.205 81.5816 113.45 81.5893 113.696 81.6009C113.75 81.6028 113.803 81.6047 113.859 81.6085C114.095 81.6182 114.331 81.6297 114.567 81.6432C114.635 81.647 114.704 81.6528 114.773 81.6566C114.951 81.6662 115.132 81.6778 115.31 81.6912C115.416 81.697 115.519 81.7047 115.625 81.7143C116.051 81.747 116.475 81.7835 116.901 81.8258C117.043 81.8374 117.185 81.8528 117.327 81.8682C117.707 81.9085 118.089 81.9528 118.471 82.0008C118.642 82.0201 118.813 82.0431 118.984 82.0662C119.003 82.0681 119.022 82.0701 119.041 82.0739C119.253 82.1028 119.462 82.1316 119.673 82.1624C119.811 82.1816 119.949 82.2028 120.088 82.2239C120.23 82.2451 120.372 82.2662 120.514 82.2912C120.59 82.3028 120.667 82.3162 120.746 82.3297C120.93 82.3585 121.116 82.3893 121.303 82.4239C121.319 82.4255 121.336 82.4281 121.352 82.4316C121.748 82.5008 122.145 82.5739 122.541 82.6527C122.773 82.697 123.003 82.7431 123.233 82.7912C123.414 82.8277 123.594 82.8662 123.775 82.9047C123.805 82.9104 123.836 82.9181 123.867 82.9258C123.874 82.9278 123.881 82.9291 123.888 82.9297C124.161 82.9893 124.435 83.0508 124.708 83.1162C125.654 83.3354 126.599 83.579 127.543 83.8469C127.759 83.9065 127.976 83.97 128.193 84.0335C128.285 84.0604 128.376 84.0873 128.466 84.1142C128.654 84.17 128.84 84.2258 129.028 84.2854C129.193 84.3354 129.36 84.3873 129.525 84.4411C129.629 84.4738 129.733 84.5065 129.836 84.5411C129.997 84.5911 130.159 84.6431 130.318 84.6988C130.454 84.7411 130.589 84.7854 130.723 84.8334C130.915 84.8969 131.109 84.9623 131.301 85.0315C131.356 85.0507 131.414 85.07 131.47 85.0911C131.704 85.1719 131.938 85.2546 132.172 85.3411C132.401 85.4238 132.629 85.5084 132.855 85.593C133.013 85.6526 133.17 85.7103 133.326 85.7719C133.5 85.8392 133.675 85.9065 133.848 85.9757C134.097 86.0738 134.349 86.1738 134.598 86.2757C134.829 86.368 135.057 86.4622 135.287 86.5603C135.33 86.5776 135.374 86.5949 135.416 86.6141C135.616 86.6968 135.815 86.7834 136.013 86.8699C136.141 86.9238 136.268 86.9795 136.395 87.0353C136.948 87.2776 137.5 87.5282 138.051 87.7872H138.053C138.399 87.9506 138.75 88.1064 139.103 88.2545C139.186 88.2891 139.268 88.3237 139.353 88.3564C139.493 88.416 139.635 88.4718 139.777 88.5295C139.869 88.566 139.961 88.6025 140.055 88.6371C140.191 88.691 140.33 88.7429 140.468 88.7929C140.614 88.8468 140.758 88.9006 140.905 88.9506C140.957 88.9698 141.009 88.9871 141.063 89.0064C141.234 89.064 141.404 89.1217 141.577 89.1775C141.594 89.1833 141.612 89.189 141.631 89.1948C141.811 89.2525 141.992 89.3102 142.174 89.364C142.189 89.3694 142.203 89.3739 142.218 89.3775C142.414 89.4371 142.614 89.4948 142.811 89.5506C143.103 89.6313 143.397 89.7083 143.69 89.7794C143.744 89.7929 143.798 89.8063 143.852 89.8179C144.009 89.8563 144.165 89.8929 144.322 89.9275C144.489 89.9659 144.658 90.0005 144.825 90.0352C144.994 90.0698 145.163 90.1044 145.33 90.1352C145.42 90.1525 145.51 90.1698 145.598 90.1852L145.834 90.2256C145.998 90.2544 146.161 90.2794 146.326 90.3063C146.33 90.3061 146.335 90.3068 146.339 90.3082C146.525 90.3371 146.71 90.364 146.896 90.3871C147.074 90.4121 147.253 90.4332 147.431 90.4544C147.468 90.4582 147.506 90.4621 147.545 90.4659C147.692 90.4832 147.84 90.5005 147.988 90.514C148.03 90.5178 148.072 90.5217 148.115 90.5255C148.261 90.539 148.406 90.5525 148.552 90.5621C148.582 90.5659 148.611 90.5678 148.641 90.5678C148.771 90.5794 148.902 90.589 149.032 90.5948C149.124 90.6025 149.215 90.6063 149.307 90.6121C149.355 90.614 149.401 90.6159 149.449 90.6178C149.575 90.6255 149.702 90.6294 149.831 90.6332C149.986 90.639 150.142 90.6428 150.295 90.6467C150.481 90.6505 150.669 90.6525 150.856 90.6525H150.859C151.042 90.6525 151.226 90.6505 151.408 90.6467H151.478L151.679 90.6409C151.783 90.639 151.886 90.6351 151.988 90.6313C152.184 90.6236 152.378 90.614 152.572 90.6025C152.648 90.5986 152.727 90.5928 152.804 90.589C152.838 90.5871 152.875 90.5832 152.909 90.5813C153.03 90.5736 153.149 90.5659 153.27 90.5563C153.395 90.5467 153.522 90.5351 153.646 90.5217C153.808 90.5063 153.969 90.489 154.13 90.4717C154.257 90.4582 154.383 90.4428 154.508 90.4275C154.525 90.426 154.542 90.4234 154.558 90.4198C154.679 90.4063 154.8 90.3909 154.919 90.3736C155.061 90.3544 155.201 90.3332 155.341 90.3121C155.357 90.3102 155.37 90.3083 155.385 90.3063C155.627 90.2679 155.871 90.2294 156.115 90.1852C156.37 90.139 156.625 90.089 156.879 90.0371C156.973 90.0179 157.065 89.9967 157.159 89.9775C157.211 89.966 157.265 89.9563 157.314 89.9448C157.393 89.9275 157.47 89.9102 157.547 89.891C157.56 89.889 157.575 89.8852 157.589 89.8833C157.696 89.8602 157.802 89.8333 157.909 89.8063C158.124 89.7544 158.336 89.7006 158.547 89.6429C158.641 89.6198 158.735 89.5948 158.825 89.5698C158.852 89.5621 158.879 89.5544 158.904 89.5467C159.293 89.4371 159.68 89.3211 160.063 89.1987C160.232 89.1448 160.399 89.0891 160.566 89.0294C160.925 88.9064 161.281 88.7769 161.633 88.641C161.727 88.6064 161.821 88.5679 161.915 88.5314C162.053 88.4756 162.192 88.4199 162.328 88.3641C162.451 88.3122 162.574 88.2602 162.698 88.2064C162.76 88.1814 162.821 88.1545 162.883 88.1276C163.067 88.0468 163.251 87.9641 163.433 87.8814C163.556 87.8237 163.677 87.768 163.798 87.7103C163.99 87.618 164.18 87.5237 164.37 87.4295C164.418 87.4045 164.464 87.3795 164.51 87.3564C164.631 87.2949 164.752 87.2314 164.875 87.1699C165.069 87.0661 165.263 86.9622 165.455 86.8545C165.52 86.8199 165.583 86.7834 165.648 86.7468C165.86 86.6276 166.069 86.5065 166.276 86.3834C166.735 86.1084 167.187 85.8212 167.633 85.5219C167.744 85.4488 167.856 85.3719 167.965 85.2969C168.172 85.1546 168.376 85.0084 168.579 84.8623C168.601 84.8469 168.62 84.8315 168.641 84.8181C168.743 84.7431 168.844 84.6681 168.946 84.5912C169.157 84.4315 169.366 84.27 169.576 84.1046C169.579 84.1027 169.585 84.0969 169.591 84.0931C169.685 84.0181 169.779 83.9431 169.871 83.8681C170.157 83.6354 170.439 83.3989 170.716 83.1547C170.852 83.0374 170.986 82.9162 171.119 82.7951C171.219 82.7047 171.318 82.6143 171.416 82.522C171.614 82.3355 171.808 82.1509 172 81.9624C172.096 81.8701 172.19 81.7739 172.286 81.6778C172.38 81.5816 172.476 81.4855 172.57 81.3874C172.602 81.3547 172.635 81.3201 172.668 81.2855C172.764 81.1836 172.86 81.0797 172.956 80.9778C173.038 80.8894 173.119 80.7971 173.201 80.7048C173.34 80.5509 173.48 80.3971 173.616 80.2413C173.623 80.2326 173.631 80.2242 173.639 80.2163C173.647 80.2067 173.654 80.199 173.66 80.1913H173.658C176.448 76.9591 178.521 73.17 179.74 69.0749C180.959 64.9799 181.295 60.6722 180.728 56.4369C180.161 52.2016 178.702 48.1354 176.448 44.5073C174.195 40.8791 171.198 37.7719 167.656 35.3911L167.656 35.391Z" fill="#6C63FF"/>
<g opacity="0.15">
<path opacity="0.15" d="M128.806 12.698C129.189 14.0749 129.764 15.3906 130.516 16.6055C129.258 15.5228 128.134 14.293 127.168 12.9423C127.71 12.8395 128.256 12.7581 128.806 12.698Z" fill="black"/>
<path opacity="0.15" d="M110.077 33.9927C108.656 34.7695 107.328 35.7049 106.117 36.7811C108.161 34.3597 109.655 31.5218 110.495 28.4643C110.506 28.4275 110.516 28.3906 110.526 28.3538L110.554 28.2497C111.564 24.6005 113.523 21.2855 116.231 18.6436L116.444 18.4358L116.594 18.6926C117.424 20.1068 118.417 21.4181 119.553 22.5995C117.812 27.5212 114.425 31.6175 110.077 33.9927Z" fill="black"/>
<path opacity="0.15" d="M120.083 20.8941L120.054 20.9982C120.044 21.035 120.034 21.072 120.024 21.1087C119.968 21.3111 119.908 21.5119 119.847 21.7119C119.239 20.1362 118.813 18.4965 118.576 16.8243L118.553 16.6824L118.67 16.5991C120.13 15.5476 121.717 14.6836 123.392 14.0273C121.888 16.0997 120.767 18.4254 120.083 20.8941Z" fill="black"/>
<path opacity="0.15" d="M100.549 41.3482C101.806 40.6588 102.983 39.8312 104.057 38.8809C101.911 41.3843 100.372 44.3518 99.5623 47.5506C98.7522 50.7494 98.6924 54.0926 99.3877 57.3184C100.083 60.5443 101.514 63.565 103.57 66.1438C105.625 68.7227 108.249 70.7897 111.235 72.1829L111.332 72.2278L111.429 72.184C113.041 71.4539 114.742 70.9366 116.488 70.6448C115.398 71.2009 114.382 71.8917 113.464 72.7012L113.154 72.9702L113.544 73.099C113.88 73.2104 114.216 73.3129 114.543 73.4038C116.464 73.9399 118.45 74.2061 120.444 74.1948C129.504 74.1367 138.634 76.2352 147.581 80.4319C149.115 81.1506 150.707 81.7398 152.339 82.1937C159.451 84.1776 167.044 83.464 173.664 80.1893C169.931 84.5138 165.051 87.6888 159.59 89.3456C154.129 91.0024 148.31 91.073 142.81 89.5492C141.178 89.0954 139.587 88.5061 138.053 87.7874C129.106 83.5907 119.976 81.4922 110.916 81.5504C108.922 81.5616 106.936 81.2954 105.015 80.7594C104.688 80.6684 104.352 80.5659 104.015 80.4545L103.626 80.3257L103.936 80.0567C104.854 79.2472 105.87 78.5564 106.96 78.0003C105.214 78.2921 103.513 78.8094 101.9 79.5395L101.804 79.5833L101.707 79.5384C98.1206 77.8662 95.069 75.2286 92.8923 71.9199C90.7156 68.6113 89.4993 64.7617 89.3792 60.8008C89.2591 56.8399 90.24 52.9235 92.2123 49.4886C94.1846 46.0536 97.0707 43.2353 100.549 41.3482L100.549 41.3482Z" fill="black"/>
</g>
</g>
<defs>
<clipPath id="clip0_9825_175232">
<rect width="181" height="153" fill="white"/>
</clipPath>
</defs>
</svg>
