<svg width="393" height="220" viewBox="0 0 393 220" fill="none" xmlns="http://www.w3.org/2000/svg">
<g clip-path="url(#clip0_118_32206)">
<path opacity="0.1" d="M312.851 94.6207V90.9149C315.734 89.7381 318.12 87.5902 319.602 84.8391C321.083 82.0879 321.567 78.9046 320.97 75.8343C320.374 72.7639 318.735 69.9975 316.333 68.0086C313.931 66.0198 310.916 64.9323 307.804 64.9323C304.692 64.9323 301.678 66.0198 299.276 68.0086C296.874 69.9975 295.234 72.7639 294.638 75.8343C294.042 78.9046 294.526 82.0879 296.007 84.8391C297.488 87.5902 299.875 89.7381 302.758 90.9149V94.6207C299.397 95.56 296.36 97.4164 293.984 99.9843C291.468 96.1886 287.678 93.4284 283.307 92.2066V88.4973C286.19 87.3205 288.577 85.1726 290.058 82.4215C291.539 79.6703 292.023 76.487 291.427 73.4167C290.83 70.3463 289.191 67.5799 286.789 65.5911C284.387 63.6022 281.372 62.5147 278.26 62.5147C275.149 62.5147 272.134 63.6022 269.732 65.5911C267.33 67.5799 265.691 70.3463 265.094 73.4167C264.498 76.487 264.982 79.6703 266.463 82.4215C267.944 85.1726 270.331 87.3205 273.214 88.4973V92.2031C270.225 93.0372 267.487 94.5982 265.241 96.7482C262.734 93.3653 259.18 90.916 255.137 89.7855V86.0797C258.021 84.9029 260.407 82.755 261.888 80.0039C263.37 77.2527 263.853 74.0695 263.257 70.9991C262.661 67.9288 261.021 65.1623 258.619 63.1735C256.218 61.1846 253.203 60.0971 250.091 60.0971C246.979 60.0971 243.964 61.1846 241.562 63.1735C239.16 65.1623 237.521 67.9288 236.925 70.9991C236.328 74.0695 236.812 77.2527 238.294 80.0039C239.775 82.755 242.161 84.9029 245.044 86.0797V89.7855C241.606 90.749 238.509 92.6722 236.113 95.3322C235.044 92.5788 233.353 90.1135 231.172 88.1316C228.992 86.1497 226.382 84.7058 223.55 83.9143V80.2085C226.433 79.0316 228.819 76.8838 230.301 74.1326C231.782 71.3815 232.266 68.1982 231.669 65.1278C231.073 62.0575 229.434 59.291 227.032 57.3022C224.63 55.3134 221.615 54.2258 218.503 54.2258C215.391 54.2258 212.377 55.3134 209.975 57.3022C207.573 59.291 205.933 62.0575 205.337 65.1278C204.741 68.1982 205.224 71.3815 206.706 74.1326C208.187 76.8838 210.574 79.0316 213.457 80.2085V83.9143C209.775 84.9447 206.492 87.0731 204.038 90.0186C201.585 92.9641 200.078 96.5881 199.715 100.413C197.982 99.2025 196.057 98.2953 194.023 97.729V94.0232C196.906 92.8464 199.293 90.6985 200.774 87.9474C202.255 85.1962 202.739 82.0129 202.143 78.9426C201.547 75.8722 199.907 73.1058 197.505 71.117C195.103 69.1281 192.088 68.0406 188.977 68.0406C185.865 68.0406 182.85 69.1281 180.448 71.117C178.046 73.1058 176.407 75.8722 175.81 78.9426C175.214 82.0129 175.698 85.1962 177.179 87.9474C178.661 90.6985 181.047 92.8464 183.93 94.0232V97.729C181.364 98.4475 178.978 99.7015 176.926 101.409C174.874 103.117 173.204 105.241 172.023 107.641C170.432 106.613 168.694 105.833 166.87 105.327V101.621C169.754 100.444 172.14 98.2966 173.621 95.5455C175.103 92.7943 175.587 89.6111 174.99 86.5407C174.394 83.4704 172.754 80.7039 170.352 78.7151C167.951 76.7262 164.936 75.6387 161.824 75.6387C158.712 75.6387 155.697 76.7262 153.295 78.7151C150.893 80.7039 149.254 83.4704 148.658 86.5407C148.061 89.6111 148.545 92.7943 150.027 95.5455C151.508 98.2966 153.894 100.444 156.777 101.621V105.327C155.056 105.805 153.412 106.528 151.896 107.475C150.707 105.114 149.042 103.028 147.007 101.35C144.972 99.6719 142.611 98.4387 140.075 97.729V94.0232C142.958 92.8464 145.345 90.6985 146.826 87.9474C148.307 85.1962 148.791 82.0129 148.195 78.9426C147.598 75.8722 145.959 73.1058 143.557 71.117C141.155 69.1281 138.14 68.0406 135.028 68.0406C131.917 68.0406 128.902 69.1281 126.5 71.117C124.098 73.1058 122.459 75.8722 121.862 78.9426C121.266 82.0129 121.75 85.1962 123.231 87.9474C124.712 90.6985 127.099 92.8464 129.982 94.0232V97.729C127.253 98.4923 124.729 99.8616 122.596 101.736C120.463 103.611 118.776 105.943 117.66 108.56C115.738 107.077 113.552 105.98 111.218 105.327V101.621C114.101 100.444 116.488 98.2966 117.969 95.5455C119.451 92.7943 119.934 89.6111 119.338 86.5407C118.742 83.4704 117.102 80.7039 114.7 78.7151C112.298 76.7262 109.284 75.6387 106.172 75.6387C103.06 75.6387 100.045 76.7262 97.6433 78.7151C95.2414 80.7039 93.6019 83.4704 93.0056 86.5407C92.4092 89.6111 92.8931 92.7943 94.3744 95.5455C95.8557 98.2966 98.2422 100.444 101.125 101.621V105.327C97.144 106.437 93.6341 108.827 91.133 112.133C88.632 115.439 87.2777 119.478 87.2776 123.632V209.283H125.045V201.685H142.909V209.283H180.698V201.685H207.837V187.87H231.197V193.742H259.366V196.159H288.91V198.577H326.698V112.925C326.698 108.772 325.344 104.733 322.843 101.427C320.342 98.1208 316.832 95.7301 312.851 94.6207Z" fill="#6C63FF"/>
<path d="M168.598 58.3674H200.007C207.69 58.3669 215.297 59.8877 222.394 62.843C229.492 65.7982 235.941 70.13 241.373 75.591C246.805 81.052 251.114 87.5353 254.054 94.6706C256.994 101.806 258.507 109.454 258.507 117.177V196.86H110.102V117.177C110.102 101.58 116.265 86.6212 127.235 75.5923C138.205 64.5633 153.084 58.3674 168.598 58.3674Z" fill="#2F2E41"/>
<path opacity="0.2" d="M172.034 61.5724H196.572C204.254 61.5719 211.861 63.0928 218.959 66.048C226.056 69.0032 232.505 73.335 237.938 78.796C243.37 84.2571 247.679 90.7403 250.619 97.8756C253.559 105.011 255.072 112.659 255.072 120.382V193.652H113.537V120.382C113.537 104.785 119.7 89.8262 130.67 78.7973C141.641 67.7684 156.519 61.5724 172.034 61.5724Z" fill="black"/>
<path d="M358.647 208.116V214.146C350.764 218.043 342.092 220.052 333.308 220.017H74.6047C72.5435 220.017 70.5007 219.934 68.4761 219.769C61.2814 219.199 54.2115 217.553 47.5001 214.885C46.1901 214.365 44.9053 213.805 43.6457 213.207C43.0456 212.923 42.4513 212.632 41.8627 212.333C41.4952 212.146 41.1276 211.953 40.7634 211.759C38.5541 210.58 36.4138 209.275 34.3531 207.85V191.473C34.3531 188.825 35.3991 186.287 37.261 184.415C39.1229 182.543 41.6481 181.491 44.2812 181.491H329.835C332.237 181.496 334.556 182.376 336.362 183.968L355.256 200.614C356.32 201.55 357.174 202.703 357.758 203.997C358.343 205.29 358.646 206.695 358.647 208.116Z" fill="#2F2E41"/>
<path d="M165.812 77.9878C158.321 78.4851 150.858 79.291 143.424 80.4053C141.312 80.7231 139.168 81.0754 137.241 82.0148C135.743 82.8032 134.363 83.7983 133.139 84.9711C127.621 89.9415 123.177 95.9991 120.085 102.768C118.171 106.964 116.797 111.402 114.994 115.633C108.573 130.743 96.9274 143.1 90.1495 158.051C88.6827 161.287 87.4459 164.665 86.9547 168.184C86.4463 171.825 87.0234 176.073 89.9984 178.2C91.3725 179.177 93.0421 179.582 94.6773 179.927C115.262 184.51 136.087 187.929 157.052 190.167C154.782 187.964 154.022 184.548 154.321 181.391C154.62 178.235 155.853 175.251 157.069 172.325C145.204 169.694 133.368 166.931 121.562 164.036C119.8 163.605 117.684 162.793 117.467 160.983C117.357 160.061 117.811 159.174 118.257 158.362C123.292 149.196 129.33 140.623 136.258 132.805C136.258 142.496 135.781 153.441 135.781 163.135H247.119C245.78 157.604 244.993 151.952 244.77 146.264C244.251 127.697 250.469 109.271 248.854 90.7422C248.703 89.0327 248.469 87.2713 247.58 85.8069C246.044 83.2788 242.98 82.2324 240.163 81.3689C229.362 78.0672 218.335 74.7275 207.046 74.9865C203.69 75.0659 200.348 75.4597 197.012 75.8568C186.847 77.0622 176.026 77.3074 165.812 77.9878Z" fill="#6C63FF"/>
<path d="M113.668 189.373L121.775 215.458C121.827 215.624 121.93 215.768 122.069 215.87C122.208 215.973 122.376 216.028 122.548 216.028H157.337L149.093 185.636L114.375 188.319C114.254 188.329 114.137 188.367 114.033 188.428C113.928 188.49 113.838 188.574 113.77 188.675C113.702 188.777 113.658 188.892 113.64 189.012C113.622 189.133 113.632 189.256 113.668 189.373Z" fill="#656478"/>
<path d="M173.14 89.2054C171.628 90.0791 169.866 90.3934 168.148 90.6939L157.063 92.628C154.905 93.0044 152.634 93.4327 150.972 94.866C147.571 97.7912 148.306 103.176 149.337 107.555L151.398 116.341C152.951 122.944 154.538 129.627 157.722 135.609C163.284 146.05 173.487 153.568 184.707 157.191C188.716 158.486 192.951 159.329 197.136 158.866C205.332 157.961 212.344 152.087 216.665 145.024C220.987 137.961 223.045 129.769 224.931 121.694C226.741 113.965 228.462 106.125 228.345 98.1815C228.311 95.7087 228.064 93.1253 226.751 91.0289C223.876 86.4251 217.359 86.0798 212.017 86.9294C211.186 87.0641 210.324 87.2091 209.523 86.957C207.119 86.2041 207.064 82.8851 206.033 80.5815C204.085 76.2368 198.307 75.4666 193.583 75.8603C188.86 76.254 181.505 76.7617 177.389 79.4521C173.432 82.0251 177.781 86.5149 173.14 89.2054Z" fill="#FBBEBE"/>
<path opacity="0.1" d="M173.14 89.2054C171.628 90.0791 169.866 90.3934 168.148 90.6939L157.063 92.628C154.905 93.0044 152.634 93.4327 150.972 94.866C147.571 97.7912 148.306 103.176 149.337 107.555L151.398 116.341C152.951 122.944 154.538 129.627 157.722 135.609C163.284 146.05 173.487 153.568 184.707 157.191C188.716 158.486 192.951 159.329 197.136 158.866C205.332 157.961 212.344 152.087 216.665 145.024C220.987 137.961 223.045 129.769 224.931 121.694C226.741 113.965 228.462 106.125 228.345 98.1815C228.311 95.7087 228.064 93.1253 226.751 91.0289C223.876 86.4251 217.359 86.0798 212.017 86.9294C211.186 87.0641 210.324 87.2091 209.523 86.957C207.119 86.2041 207.064 82.8851 206.033 80.5815C204.085 76.2368 198.307 75.4666 193.583 75.8603C188.86 76.254 181.505 76.7617 177.389 79.4521C173.432 82.0251 177.781 86.5149 173.14 89.2054Z" fill="black"/>
<path d="M163.964 99.1036C165.641 102.64 166.898 106.391 168.925 109.738C170.536 112.397 172.601 114.742 174.655 117.073C179.976 123.124 185.366 129.223 191.952 133.83C194.679 119.745 201.267 106.706 210.973 96.1853C213.811 93.1218 217.363 90.1033 221.526 90.2173C224.11 90.2898 226.494 91.578 228.644 93.0113C231.049 94.6104 233.323 96.465 235.051 98.7686C237.782 102.436 238.96 107.082 239.173 111.658C239.386 116.234 238.679 120.8 237.978 125.324L234.371 148.709C234.161 150.063 233.869 151.558 232.77 152.37C232.146 152.767 231.442 153.022 230.709 153.116C217.596 155.682 204.082 154.017 190.722 153.886C175.95 153.744 160.769 155.437 146.777 150.712C146.046 150.463 145.286 150.177 144.792 149.586C144.467 149.141 144.233 148.635 144.105 148.098C140.844 137.488 143.459 126.087 145.393 115.156C146.924 106.494 148.015 97.7585 148.66 88.9843C148.718 88.1934 157.361 89.941 158.327 90.5005C160.955 92.065 162.7 96.4374 163.964 99.1036Z" fill="#6C63FF"/>
<g opacity="0.2">
<path opacity="0.2" d="M57.3251 185.391C57.3251 185.549 57.3079 185.705 57.2907 185.857C55.9807 185.337 54.6959 184.777 53.4363 184.178C52.7634 184.089 52.1376 183.783 51.6534 183.305C51.2858 183.118 50.9182 182.925 50.5541 182.731C50.6365 182.558 50.7295 182.389 50.8323 182.227C51.54 181.101 52.6153 180.397 53.8005 180.435C54.9856 180.473 56.0128 181.243 56.6483 182.407C57.1344 183.323 57.368 184.353 57.3251 185.391Z" fill="#3F3D56"/>
<path opacity="0.2" d="M57.5106 179.478C57.4872 180.514 57.1895 181.525 56.6483 182.407C55.9407 183.529 54.8654 184.234 53.6802 184.196L53.4363 184.178C52.7634 184.089 52.1376 183.783 51.6534 183.305C51.325 182.991 51.0479 182.627 50.8323 182.227C50.3583 181.308 50.1264 180.281 50.1589 179.246C50.1914 178.211 50.4871 177.202 51.0178 176.314C51.7255 175.188 52.8008 174.484 53.986 174.522C55.1711 174.56 56.1983 175.33 56.8338 176.494C57.3199 177.41 57.5535 178.44 57.5106 179.478Z" fill="#3F3D56"/>
<path opacity="0.2" d="M57.696 173.574C57.7799 170.903 56.2031 168.686 54.174 168.621C52.145 168.557 50.432 170.67 50.3481 173.341C50.2641 176.012 51.8409 178.229 53.87 178.294C55.8991 178.358 57.612 176.245 57.696 173.574Z" fill="#3F3D56"/>
<path opacity="0.2" d="M57.8834 167.661C57.9674 164.99 56.3905 162.773 54.3615 162.708C52.3324 162.644 50.6195 164.757 50.5355 167.428C50.4515 170.099 52.0284 172.316 54.0574 172.381C56.0865 172.445 57.7994 170.332 57.8834 167.661Z" fill="#3F3D56"/>
<path opacity="0.2" d="M58.0674 161.748C58.1514 159.078 56.5745 156.86 54.5455 156.796C52.5164 156.731 50.8035 158.844 50.7195 161.515C50.6356 164.186 52.2124 166.404 54.2414 166.468C56.2705 166.532 57.9835 164.419 58.0674 161.748Z" fill="#3F3D56"/>
<path opacity="0.2" d="M41.9109 120.724C41.4271 120.065 40.9909 119.373 40.6055 118.652L50.3137 117.363L39.8497 117.115C38.9172 114.891 38.4456 112.499 38.4639 110.086C38.4822 107.672 38.99 105.288 39.9562 103.079L53.7387 110.829L41.1139 100.868C42.3875 98.7976 44.0721 97.0129 46.0626 95.626C48.053 94.2391 50.3065 93.2796 52.6824 92.8076C55.0582 92.3356 57.5054 92.3612 59.8709 92.8827C62.2365 93.4042 64.4697 94.4105 66.4311 95.8387C68.3925 97.2669 70.0399 99.0863 71.2704 101.183C72.5009 103.28 73.2881 105.61 73.5829 108.027C73.8776 110.443 73.6736 112.895 72.9835 115.229C72.2934 117.563 71.1321 119.728 69.5721 121.591C70.3238 122.615 70.963 123.719 71.4787 124.882L58.7439 131.043L72.255 126.958C73.1062 129.779 73.2441 132.769 72.6563 135.658C72.0685 138.547 70.7734 141.242 68.8884 143.501C70.8506 146.177 72.024 149.354 72.2742 152.669C72.5245 155.984 71.8415 159.303 70.3035 162.247C68.7655 165.19 66.4345 167.638 63.5773 169.312C60.72 170.986 57.4518 171.817 54.1465 171.711C50.8413 171.605 47.6325 170.566 44.8872 168.712C42.1419 166.859 39.9709 164.266 38.6227 161.23C37.2745 158.194 36.8034 154.838 37.2634 151.546C37.7234 148.254 39.0959 145.158 41.2238 142.613C38.8803 139.416 37.6739 135.519 37.7985 131.549C37.9231 127.579 39.3715 123.766 41.9109 120.724Z" fill="#6C63FF"/>
<path opacity="0.1" d="M73.0004 132.663C72.8793 136.636 71.4267 140.452 68.878 143.49C70.8429 146.165 72.019 149.343 72.2717 152.658C72.5244 155.974 71.8435 159.294 70.307 162.239C68.7704 165.183 66.4402 167.634 63.5831 169.309C60.726 170.985 57.4574 171.818 54.1514 171.713C50.8454 171.608 47.6355 170.57 44.8891 168.716C42.1428 166.863 39.9709 164.27 38.622 161.234C37.2732 158.197 36.8018 154.841 37.2619 151.548C37.722 148.255 39.095 145.158 41.2238 142.613C38.9461 139.526 73.0622 130.677 73.0004 132.663Z" fill="black"/>
</g>
<path opacity="0.1" d="M127.315 55.5928C131.419 55.5928 134.746 52.2482 134.746 48.1225C134.746 43.9967 131.419 40.6522 127.315 40.6522C123.212 40.6522 119.885 43.9967 119.885 48.1225C119.885 52.2482 123.212 55.5928 127.315 55.5928Z" fill="#6C63FF"/>
<path opacity="0.1" d="M227.611 36.9958C234.488 36.9958 240.064 31.3906 240.064 24.4762C240.064 17.5618 234.488 11.9565 227.611 11.9565C220.733 11.9565 215.158 17.5618 215.158 24.4762C215.158 31.3906 220.733 36.9958 227.611 36.9958Z" fill="#6C63FF"/>
<path d="M186.538 93.0769C202.475 93.0769 215.394 80.0882 215.394 64.0659C215.394 48.0436 202.475 35.0549 186.538 35.0549C170.6 35.0549 157.681 48.0436 157.681 64.0659C157.681 80.0882 170.6 93.0769 186.538 93.0769Z" fill="#FBBEBE"/>
<path d="M174.816 7.13877C167.118 8.11962 158.808 9.41475 153.366 14.9752C150.323 18.0835 148.54 22.2279 147.073 26.3309C144.799 32.7202 143.105 39.4549 143.637 46.2345C144.111 52.2992 146.344 58.502 144.537 64.3111C143.706 66.9843 142.074 69.319 140.807 71.8091C138.457 76.4336 137.351 81.6176 136.945 86.7947C136.664 90.3554 136.719 94.0198 137.883 97.394C139.123 100.986 141.542 104.042 143.074 107.517C145.341 112.649 145.568 118.424 145.743 124.036C145.918 129.648 146.066 135.222 146.197 140.814C146.279 144.33 146.286 148.094 144.352 151.026C151.494 148.149 158.736 145.214 164.847 140.517C170.958 135.82 175.905 129.047 176.695 121.352C177.334 115.115 175.239 108.967 173.432 102.965C168.966 88.114 166.08 72.2823 169.33 57.1171C170.502 51.6568 173.349 45.5611 178.815 44.556C182.151 43.9447 185.479 45.4747 188.485 47.0565C195.59 50.7934 202.914 55.6286 205.559 63.237C207.964 70.1168 205.94 77.7805 202.811 84.3494C199.681 90.9184 195.421 96.9589 192.989 103.825C189.255 114.359 190.306 126.692 196.51 135.972C202.714 145.252 214.178 150.961 225.202 149.462C224.34 145.718 221.636 142.693 220.186 139.135C217.552 132.673 219.328 125.241 222.162 118.866C224.996 112.49 228.864 106.546 230.637 99.7771C231.887 95.011 232.038 90.0308 232.031 85.1023C232.031 77.3454 231.65 69.5849 230.908 61.8625C230.166 54.14 229.032 46.3209 226.586 38.892C224.621 32.9344 221.76 27.1736 217.479 22.6044C212.924 17.7381 206.995 14.4399 201.172 11.2072C197.689 9.28006 194.13 7.32873 190.22 6.6069C187.128 6.03705 183.879 5.22543 180.725 5.17362C178.581 5.14254 176.328 5.60879 174.816 7.13877Z" fill="#434175"/>
<path d="M229.129 44.5833L210.564 40.9621C210.023 40.8567 209.501 41.2115 209.396 41.7545L200.501 87.8445C200.396 88.3875 200.749 88.9131 201.289 89.0185L219.855 92.6398C220.395 92.7451 220.917 92.3903 221.022 91.8473L229.917 45.7573C230.022 45.2143 229.669 44.6887 229.129 44.5833Z" fill="#656478"/>
<path d="M230.532 44.8571L211.967 41.2358C211.427 41.1305 210.904 41.4853 210.799 42.0283L201.904 88.1182C201.799 88.6613 202.152 89.1869 202.693 89.2922L221.258 92.9135C221.798 93.0188 222.321 92.664 222.426 92.121L231.32 46.0311C231.425 45.488 231.072 44.9624 230.532 44.8571Z" fill="#3F3D56"/>
<path d="M220.618 53.7236C220.981 51.8417 220.649 50.194 219.876 50.0432C219.103 49.8924 218.182 51.2957 217.819 53.1776C217.456 55.0595 217.788 56.7072 218.561 56.858C219.334 57.0088 220.255 55.6055 220.618 53.7236Z" fill="#6C63FF"/>
<path d="M225.013 69.4192C224.106 67.8063 223.137 66.1382 221.609 65.1055C220.73 64.5637 219.785 64.1377 218.799 63.838C215.47 62.6672 212.086 61.486 208.565 61.2995C207.991 61.2719 207.335 61.2995 206.961 61.7416C206.191 62.6499 207.411 63.8864 208.465 64.4355L216.854 68.8044L209.121 67.9824C207.998 67.8616 206.397 68.1689 206.48 69.3018C206.535 70.0443 207.345 70.4484 208.046 70.6832C213.01 72.4101 218.747 73.7639 221.464 78.2813C217.844 77.936 214.144 77.5906 210.595 78.3919C209.623 78.6129 208.616 78.9548 207.981 79.725C207.345 80.4952 207.273 81.7972 208.074 82.4085C208.568 82.778 209.235 82.7884 209.853 82.7539C212.371 82.633 214.955 82.1288 217.373 82.8506C219.791 83.5724 221.939 86.1212 221.104 88.5112C223.247 88.7046 225.783 88.5112 227.765 87.5821C229.95 86.546 229.898 84.5981 229.764 82.2496C229.479 77.6493 227.208 73.3564 225.013 69.4192Z" fill="#FBBEBE"/>
<path opacity="0.1" d="M222.845 144.706C220.923 131.115 218.286 117.636 214.944 104.326C213.227 97.4183 211.275 90.3934 211.767 83.2858C218.864 84.1941 225.223 84.8675 231.763 81.9526C231.87 85.6861 234.563 88.86 235.542 92.4691C236.198 94.8867 235.951 97.4459 236.209 99.936C236.466 102.426 237.239 104.84 237.902 107.261C241.192 119.258 241.968 131.812 240.18 144.126C234.11 144.851 228.902 145.649 222.845 144.706Z" fill="black"/>
<path d="M221.815 144.706C219.892 131.115 217.255 117.636 213.914 104.326C212.196 97.4183 210.245 90.3934 210.736 83.2858C217.833 84.1941 224.192 84.8675 230.733 81.9526C230.839 85.6861 233.533 88.86 234.512 92.4691C235.168 94.8867 234.921 97.4459 235.178 99.936C235.436 102.426 236.209 104.84 236.872 107.261C240.161 119.258 240.937 131.812 239.149 144.126C233.079 144.851 227.871 145.649 221.815 144.706Z" fill="#6C63FF"/>
<path d="M122.514 211.977L125.877 128.097C125.93 126.764 126.498 125.504 127.46 124.585C128.422 123.665 129.703 123.159 131.03 123.172L263.812 124.45C264.515 124.458 265.21 124.611 265.851 124.901C266.493 125.191 267.069 125.611 267.541 126.135C268.014 126.659 268.373 127.276 268.598 127.946C268.822 128.617 268.906 129.327 268.844 130.031L261.829 210.388C261.719 211.652 261.147 212.83 260.224 213.695C259.301 214.559 258.093 215.05 256.831 215.072L127.704 217.316C127.009 217.328 126.319 217.197 125.676 216.932C125.033 216.666 124.451 216.271 123.965 215.771C123.479 215.271 123.099 214.677 122.85 214.025C122.6 213.372 122.486 212.675 122.514 211.977Z" fill="#3F3D56"/>
<path d="M196.672 168.195C199.897 168.195 202.512 165.102 202.512 161.287C202.512 157.472 199.897 154.38 196.672 154.38C193.446 154.38 190.832 157.472 190.832 161.287C190.832 165.102 193.446 168.195 196.672 168.195Z" fill="#6C63FF"/>
<path d="M321.545 156.542L321.271 158.911L316.805 197.199C305.162 205.36 296.107 197.517 296.028 197.199L290.401 158.732L290.081 156.542H321.545Z" fill="#3F3D56"/>
<path opacity="0.1" d="M321.545 156.542L321.271 158.911C308.155 166.578 294.163 160.61 290.401 158.732L290.081 156.542H321.545Z" fill="black"/>
<path d="M289.425 154.463V157.916C289.425 157.916 306.774 168.056 322.404 157.916V154.463H289.425Z" fill="#6C63FF"/>
<path d="M291.442 149.9C291.442 149.9 290.937 152.232 289.425 152.435V155.375H322.404V152.739C322.404 152.739 320.388 152.232 320.687 149.9H291.442Z" fill="#6C63FF"/>
<path d="M305.815 154.463C314.03 154.463 320.69 152.533 320.69 150.153C320.69 147.772 314.03 145.842 305.815 145.842C297.6 145.842 290.94 147.772 290.94 150.153C290.94 152.533 297.6 154.463 305.815 154.463Z" fill="#6C63FF"/>
<path opacity="0.1" d="M305.815 154.463C314.03 154.463 320.69 152.533 320.69 150.153C320.69 147.772 314.03 145.842 305.815 145.842C297.6 145.842 290.94 147.772 290.94 150.153C290.94 152.533 297.6 154.463 305.815 154.463Z" fill="black"/>
<path opacity="0.1" d="M318.873 149.901C318.873 151.627 313.232 153.043 306.269 153.043H305.898C301.222 153.009 297.182 152.353 295.121 151.372C294.19 150.93 293.661 150.429 293.661 149.901C293.661 149.023 295.104 148.229 297.44 147.659C300.342 147.021 303.308 146.719 306.279 146.758C313.232 146.758 318.873 148.163 318.873 149.901Z" fill="black"/>
<path opacity="0.1" d="M305.898 153.043C301.222 153.009 297.182 152.353 295.121 151.372L297.43 147.645L305.898 153.043Z" fill="black"/>
<path opacity="0.1" d="M292.723 150.142C292.545 150.104 292.307 150.166 292.273 150.346C292.269 150.437 292.293 150.528 292.342 150.605C292.736 151.231 293.308 151.723 293.984 152.018C294.099 152.083 294.227 152.124 294.358 152.138C294.427 152.147 294.496 152.134 294.558 152.102C294.619 152.07 294.669 152.02 294.702 151.959C294.721 151.907 294.729 151.851 294.724 151.796C294.72 151.74 294.704 151.686 294.678 151.638C294.573 151.451 294.427 151.29 294.252 151.168C293.792 150.805 293.321 150.242 292.723 150.142Z" fill="black"/>
<path d="M306.317 187.059C311.217 187.059 315.19 183.065 315.19 178.138C315.19 173.211 311.217 169.217 306.317 169.217C301.416 169.217 297.443 173.211 297.443 178.138C297.443 183.065 301.416 187.059 306.317 187.059Z" fill="#6C63FF"/>
<path d="M64.6973 178.159H68.8575C71.1352 178.159 73.3197 179.068 74.9303 180.687C76.5409 182.307 77.4457 184.503 77.4457 186.793V199.623H56.109V186.793C56.109 184.503 57.0138 182.307 58.6245 180.687C60.2351 179.068 62.4195 178.159 64.6973 178.159Z" fill="#3F3D56"/>
<path opacity="0.1" d="M64.6973 178.159H68.8575C71.1352 178.159 73.3197 179.068 74.9303 180.687C76.5409 182.307 77.4457 184.503 77.4457 186.793V199.623H56.109V186.793C56.109 184.503 57.0138 182.307 58.6245 180.687C60.2351 179.068 62.4195 178.159 64.6973 178.159Z" fill="black"/>
<path d="M65.9237 182.88C66.8666 182.88 67.631 182.111 67.631 181.163C67.631 180.215 66.8666 179.447 65.9237 179.447C64.9807 179.447 64.2163 180.215 64.2163 181.163C64.2163 182.111 64.9807 182.88 65.9237 182.88Z" fill="#3F3D56"/>
<path d="M65.9237 180.735C66.8666 180.735 67.631 179.966 67.631 179.019C67.631 178.071 66.8666 177.302 65.9237 177.302C64.9807 177.302 64.2163 178.071 64.2163 179.019C64.2163 179.966 64.9807 180.735 65.9237 180.735Z" fill="#3F3D56"/>
<path d="M65.9237 178.587C66.8666 178.587 67.631 177.818 67.631 176.87C67.631 175.922 66.8666 175.154 65.9237 175.154C64.9807 175.154 64.2163 175.922 64.2163 176.87C64.2163 177.818 64.9807 178.587 65.9237 178.587Z" fill="#3F3D56"/>
<path d="M65.9237 176.442C66.8666 176.442 67.631 175.674 67.631 174.726C67.631 173.778 66.8666 173.009 65.9237 173.009C64.9807 173.009 64.2163 173.778 64.2163 174.726C64.2163 175.674 64.9807 176.442 65.9237 176.442Z" fill="#3F3D56"/>
<path d="M65.9237 174.297C66.8666 174.297 67.631 173.529 67.631 172.581C67.631 171.633 66.8666 170.864 65.9237 170.864C64.9807 170.864 64.2163 171.633 64.2163 172.581C64.2163 173.529 64.9807 174.297 65.9237 174.297Z" fill="#3F3D56"/>
<path d="M65.9237 172.153C66.8666 172.153 67.631 171.384 67.631 170.436C67.631 169.488 66.8666 168.72 65.9237 168.72C64.9807 168.72 64.2163 169.488 64.2163 170.436C64.2163 171.384 64.9807 172.153 65.9237 172.153Z" fill="#3F3D56"/>
<path d="M65.9237 170.008C66.8666 170.008 67.631 169.239 67.631 168.291C67.631 167.343 66.8666 166.575 65.9237 166.575C64.9807 166.575 64.2163 167.343 64.2163 168.291C64.2163 169.239 64.9807 170.008 65.9237 170.008Z" fill="#3F3D56"/>
<path d="M68.4864 170.864C69.4293 170.864 70.1938 170.096 70.1938 169.148C70.1938 168.2 69.4293 167.431 68.4864 167.431C67.5435 167.431 66.7791 168.2 66.7791 169.148C66.7791 170.096 67.5435 170.864 68.4864 170.864Z" fill="#3F3D56"/>
<path d="M70.1938 170.008C71.1367 170.008 71.9011 169.239 71.9011 168.291C71.9011 167.343 71.1367 166.575 70.1938 166.575C69.2509 166.575 68.4865 167.343 68.4865 168.291C68.4865 169.239 69.2509 170.008 70.1938 170.008Z" fill="#3F3D56"/>
<path d="M71.9011 169.148C72.8441 169.148 73.6085 168.379 73.6085 167.431C73.6085 166.483 72.8441 165.715 71.9011 165.715C70.9582 165.715 70.1938 166.483 70.1938 167.431C70.1938 168.379 70.9582 169.148 71.9011 169.148Z" fill="#3F3D56"/>
<path d="M65.9237 167.863C66.8666 167.863 67.631 167.095 67.631 166.147C67.631 165.199 66.8666 164.43 65.9237 164.43C64.9807 164.43 64.2163 165.199 64.2163 166.147C64.2163 167.095 64.9807 167.863 65.9237 167.863Z" fill="#3F3D56"/>
<path d="M65.9237 165.718C66.8666 165.718 67.631 164.95 67.631 164.002C67.631 163.054 66.8666 162.285 65.9237 162.285C64.9807 162.285 64.2163 163.054 64.2163 164.002C64.2163 164.95 64.9807 165.718 65.9237 165.718Z" fill="#3F3D56"/>
<path d="M65.9237 163.57C66.8666 163.57 67.631 162.802 67.631 161.854C67.631 160.906 66.8666 160.137 65.9237 160.137C64.9807 160.137 64.2163 160.906 64.2163 161.854C64.2163 162.802 64.9807 163.57 65.9237 163.57Z" fill="#3F3D56"/>
<path d="M65.9237 161.425C66.8666 161.425 67.631 160.657 67.631 159.709C67.631 158.761 66.8666 157.992 65.9237 157.992C64.9807 157.992 64.2163 158.761 64.2163 159.709C64.2163 160.657 64.9807 161.425 65.9237 161.425Z" fill="#3F3D56"/>
<path d="M73.0004 154.176C72.5779 154.238 72.1519 154.283 71.7259 154.311C72.1234 153.961 72.4922 153.58 72.8287 153.171C72.591 152.45 72.2433 151.771 71.7981 151.158C71.3749 151.397 70.907 151.545 70.424 151.593C70.0014 151.655 69.5754 151.7 69.1495 151.731C69.7094 151.272 70.2316 150.581 70.7812 150.004C69.5109 148.846 67.8733 148.179 66.1596 148.12C64.4459 148.062 62.7671 148.617 61.4219 149.686C60.0767 150.755 59.1522 152.269 58.8129 153.959C58.4735 155.648 58.7413 157.404 59.5686 158.914C60.3959 160.424 61.7291 161.59 63.3311 162.205C64.9331 162.82 66.7 162.843 68.3177 162.272C69.9353 161.7 71.2988 160.57 72.1657 159.082C73.0326 157.595 73.3466 155.847 73.052 154.149L73.0004 154.176Z" fill="#6C63FF"/>
<path d="M78.7065 162.703C78.2709 162.972 77.7795 163.136 77.2705 163.183C76.848 163.246 76.422 163.294 75.996 163.322C76.4488 162.913 76.8713 162.472 77.2602 162.002C76.2308 161.732 75.1383 161.858 74.1963 162.355C73.2544 162.852 72.5306 163.684 72.1665 164.689C71.8025 165.694 71.8243 166.8 72.2278 167.789C72.6313 168.779 73.3874 169.581 74.3483 170.04C75.3092 170.499 76.4058 170.581 77.4237 170.271C78.4416 169.96 79.3076 169.279 79.8525 168.36C80.3973 167.442 80.5818 166.352 80.3699 165.304C80.158 164.256 79.5648 163.325 78.7065 162.693V162.703Z" fill="#6C63FF"/>
<path d="M63.3644 170.864C64.3073 170.864 65.0717 170.096 65.0717 169.148C65.0717 168.2 64.3073 167.431 63.3644 167.431C62.4215 167.431 61.657 168.2 61.657 169.148C61.657 170.096 62.4215 170.864 63.3644 170.864Z" fill="#3F3D56"/>
<path d="M61.657 170.008C62.5999 170.008 63.3644 169.239 63.3644 168.291C63.3644 167.343 62.5999 166.575 61.657 166.575C60.7141 166.575 59.9496 167.343 59.9496 168.291C59.9496 169.239 60.7141 170.008 61.657 170.008Z" fill="#3F3D56"/>
<path d="M59.9497 169.148C60.8926 169.148 61.657 168.379 61.657 167.431C61.657 166.483 60.8926 165.715 59.9497 165.715C59.0067 165.715 58.2423 166.483 58.2423 167.431C58.2423 168.379 59.0067 169.148 59.9497 169.148Z" fill="#3F3D56"/>
<path d="M53.1443 162.703C53.5797 162.973 54.0712 163.137 54.5803 163.183C55.0028 163.246 55.4288 163.294 55.8548 163.322C55.4012 162.914 54.9786 162.473 54.5906 162.002C55.62 161.732 56.7124 161.858 57.6544 162.355C58.5964 162.852 59.3202 163.684 59.6842 164.689C60.0483 165.694 60.0264 166.8 59.623 167.789C59.2195 168.779 58.4634 169.581 57.5025 170.04C56.5416 170.499 55.445 170.581 54.4271 170.271C53.4092 169.96 52.5432 169.279 51.9983 168.36C51.4534 167.442 51.2689 166.352 51.4809 165.304C51.6928 164.256 52.2859 163.325 53.1443 162.693V162.703Z" fill="#6C63FF"/>
<path d="M64.6973 179.447H68.8575C71.1352 179.447 73.3197 180.356 74.9303 181.976C76.5409 183.595 77.4457 185.791 77.4457 188.081V199.433C77.4457 199.822 77.2923 200.194 77.0191 200.469C76.746 200.743 76.3755 200.898 75.9892 200.898H57.5656C57.1793 200.898 56.8088 200.743 56.5356 200.469C56.2625 200.194 56.109 199.822 56.109 199.433V188.081C56.109 185.791 57.0138 183.595 58.6245 181.976C60.2351 180.356 62.4195 179.447 64.6973 179.447Z" fill="#3F3D56"/>
<g opacity="0.1">
<path opacity="0.1" d="M73.131 154.646C72.9582 154.831 72.7746 155.007 72.5814 155.171C72.7772 155.171 72.9695 155.14 73.1654 155.119C73.1722 154.96 73.1482 154.801 73.131 154.646Z" fill="black"/>
<path opacity="0.1" d="M70.0186 152.594C70.448 152.567 70.8706 152.522 71.2965 152.46C71.6787 152.411 72.0522 152.309 72.4062 152.156C72.2332 151.81 72.0333 151.479 71.8084 151.164C71.5947 151.295 71.3633 151.394 71.1213 151.458C70.7845 151.866 70.4157 152.246 70.0186 152.594Z" fill="black"/>
<path opacity="0.1" d="M59.5237 156.279C59.5212 154.97 59.8699 153.684 60.5332 152.557C61.1965 151.43 62.1498 150.504 63.2927 149.876C64.4356 149.248 65.7258 148.942 67.0274 148.989C68.329 149.037 69.5937 149.436 70.6885 150.146L70.7984 150.028C70.0839 149.389 69.2507 148.898 68.3468 148.585C67.4429 148.271 66.4861 148.14 65.5316 148.199C64.5771 148.259 63.6438 148.507 62.7853 148.931C61.9269 149.355 61.1603 149.945 60.5299 150.668C59.8994 151.391 59.4175 152.232 59.1118 153.143C58.8062 154.054 58.6828 155.017 58.749 155.976C58.8151 156.936 59.0694 157.872 59.4972 158.732C59.9249 159.592 60.5177 160.358 61.2414 160.987C60.1304 159.673 59.5214 158.004 59.5237 156.279Z" fill="black"/>
</g>
<g opacity="0.1">
<path opacity="0.1" d="M75.996 164.178C76.422 164.15 76.848 164.105 77.2705 164.043C77.7798 163.995 78.2711 163.83 78.7065 163.56C79.1888 163.917 79.591 164.372 79.8869 164.896C80.1829 165.419 80.3659 166 80.4241 166.599C80.4408 166.449 80.4488 166.298 80.4482 166.147C80.4514 165.476 80.2976 164.814 79.9993 164.214C79.7009 163.614 79.2662 163.093 78.7305 162.693C78.2949 162.962 77.8036 163.126 77.2946 163.173L76.951 163.218C76.6579 163.562 76.3386 163.883 75.996 164.178Z" fill="black"/>
<path opacity="0.1" d="M76.1678 162.714C76.3103 162.715 76.4525 162.726 76.5938 162.745C76.8171 162.506 77.0369 162.251 77.2602 162.002C76.6287 161.833 75.9667 161.811 75.3257 161.94C74.6847 162.069 74.0818 162.345 73.5637 162.745C73.0455 163.146 72.6261 163.661 72.3378 164.251C72.0495 164.841 71.9001 165.489 71.9011 166.147C71.9011 166.292 71.9011 166.433 71.9217 166.575C72.0274 165.517 72.5203 164.535 73.3049 163.822C74.0895 163.108 75.1098 162.713 76.1678 162.714Z" fill="black"/>
</g>
<g opacity="0.1">
<path opacity="0.1" d="M55.8548 164.178C55.4288 164.15 55.0028 164.105 54.5803 164.043C54.0709 163.996 53.5795 163.83 53.1443 163.56C52.662 163.917 52.2598 164.372 51.9639 164.896C51.668 165.419 51.4849 166 51.4267 166.599C51.41 166.449 51.402 166.298 51.4026 166.147C51.3994 165.476 51.5532 164.814 51.8516 164.214C52.15 163.614 52.5846 163.093 53.1203 162.693C53.5557 162.962 54.0472 163.127 54.5562 163.173L54.8998 163.218C55.1911 163.564 55.5105 163.885 55.8548 164.178Z" fill="black"/>
<path opacity="0.1" d="M55.6831 162.714C55.5394 162.715 55.396 162.726 55.2536 162.745C55.0338 162.506 54.8139 162.251 54.5906 162.002C55.2222 161.833 55.8841 161.811 56.5251 161.94C57.1661 162.069 57.769 162.345 58.2872 162.745C58.8053 163.146 59.2248 163.661 59.5131 164.251C59.8014 164.841 59.9508 165.489 59.9497 166.147C59.9497 166.292 59.9497 166.433 59.9291 166.575C59.8235 165.517 59.3305 164.535 58.5459 163.822C57.7613 163.108 56.741 162.713 55.6831 162.714Z" fill="black"/>
</g>
</g>
<defs>
<clipPath id="clip0_118_32206">
<rect width="393" height="220" fill="white"/>
</clipPath>
</defs>
</svg>
