<svg width="48" height="48" viewBox="0 0 48 48" fill="none" xmlns="http://www.w3.org/2000/svg">
<rect width="48" height="48" rx="24" fill="#EA5455" fill-opacity="0.12"/>
<path d="M28.7305 22.7705C28.7305 22.8405 28.7305 22.9005 28.7305 22.9705C28.7305 25.3105 26.7805 28.4105 22.7305 32.1105C18.6805 28.4105 16.7305 25.3205 16.7305 22.9705C16.7305 19.3405 19.3805 16.7705 22.7305 16.7705C23.0705 16.7705 23.4105 16.8005 23.7305 16.8505V14.8305C23.4005 14.7905 23.0705 14.7705 22.7305 14.7705C18.5305 14.7705 14.7305 17.9905 14.7305 22.9705C14.7305 26.2905 17.4005 30.2205 22.7305 34.7705C28.0605 30.2205 30.7305 26.2905 30.7305 22.9705C30.7305 22.9005 30.7305 22.8405 30.7305 22.7705H28.7305Z" fill="#EA5455"/>
<path d="M22.7305 24.7705C23.835 24.7705 24.7305 23.875 24.7305 22.7705C24.7305 21.6659 23.835 20.7705 22.7305 20.7705C21.6259 20.7705 20.7305 21.6659 20.7305 22.7705C20.7305 23.875 21.6259 24.7705 22.7305 24.7705Z" fill="#EA5455"/>
<path d="M33.2705 14.6505L31.8505 13.2305L29.7305 15.3605L27.6105 13.2305L26.1905 14.6505L28.3205 16.7705L26.1905 18.8905L27.6105 20.3105L29.7305 18.1805L31.8505 20.3105L33.2705 18.8905L31.1405 16.7705L33.2705 14.6505Z" fill="#EA5455"/>
</svg>
