<svg width="18" height="18" viewBox="0 0 16 16" fill="none" xmlns="http://www.w3.org/2000/svg">
<path d="M12.1667 7.08965C12.45 7.08965 12.725 7.12298 13 7.16465V4.23965C13 3.57298 12.6083 2.97298 12 2.71465L7.41667 0.714648C6.99167 0.531315 6.50833 0.531315 6.08333 0.714648L1.5 2.71465C0.891666 2.98131 0.5 3.58131 0.5 4.23965V7.23965C0.5 11.023 3.16667 14.5646 6.75 15.423C7.20833 15.3146 7.65 15.1563 8.08333 14.9646C7.50833 14.148 7.16667 13.1563 7.16667 12.0896C7.16667 9.33132 9.40833 7.08965 12.1667 7.08965Z" fill="#7367F0"/>
<path d="M12.1667 8.75632C10.325 8.75632 8.83333 10.248 8.83333 12.0896C8.83333 13.9313 10.325 15.423 12.1667 15.423C14.0083 15.423 15.5 13.9313 15.5 12.0896C15.5 10.248 14.0083 8.75632 12.1667 8.75632ZM12.1667 9.90631C12.6833 9.90631 13.1 10.3313 13.1 10.8396C13.1 11.348 12.675 11.773 12.1667 11.773C11.6583 11.773 11.2333 11.348 11.2333 10.8396C11.2333 10.3313 11.65 9.90631 12.1667 9.90631ZM12.1667 14.3813C11.3917 14.3813 10.7167 13.998 10.3 13.4063C10.3417 12.8063 11.5583 12.5063 12.1667 12.5063C12.775 12.5063 13.9917 12.8063 14.0333 13.4063C13.6167 13.998 12.9417 14.3813 12.1667 14.3813Z" fill="#7367F0"/>
</svg>
