<svg width="80" height="80" viewBox="0 0 80 80" fill="none" xmlns="http://www.w3.org/2000/svg">
<path fill-rule="evenodd" clip-rule="evenodd" d="M40.0001 73.3337C58.4094 73.3337 73.3334 58.4097 73.3334 40.0003C73.3334 21.5908 58.4094 6.66699 40.0001 6.66699C21.5906 6.66699 6.66675 21.5908 6.66675 40.0003C6.66675 58.4097 21.5906 73.3337 40.0001 73.3337ZM40.0001 66.667C54.7277 66.667 66.6667 54.728 66.6667 40.0003C66.6667 25.2727 54.7277 13.3337 40.0001 13.3337C25.2725 13.3337 13.3334 25.2727 13.3334 40.0003C13.3334 54.728 25.2725 66.667 40.0001 66.667Z" fill="#FF9F43"/>
<path d="M43.3334 53.3333C43.3334 55.1743 41.8411 56.6667 40.0001 56.6667C38.1591 56.6667 36.6667 55.1743 36.6667 53.3333C36.6667 51.4923 38.1591 50 40.0001 50C41.8411 50 43.3334 51.4923 43.3334 53.3333Z" fill="#FF9F43"/>
<path d="M36.6667 26.6663C36.6667 24.8254 38.1591 23.333 40.0001 23.333C41.8411 23.333 43.3334 24.8254 43.3334 26.6663V39.9997C43.3334 41.8407 41.8411 43.333 40.0001 43.333C38.1591 43.333 36.6667 41.8407 36.6667 39.9997V26.6663Z" fill="#FF9F43"/>
</svg>
