<svg width="80" height="80" viewBox="0 0 80 80" fill="none" xmlns="http://www.w3.org/2000/svg">
<path fill-rule="evenodd" clip-rule="evenodd" d="M40.0001 73.3337C58.4094 73.3337 73.3334 58.4097 73.3334 40.0003C73.3334 21.5908 58.4094 6.66699 40.0001 6.66699C21.5906 6.66699 6.66675 21.5908 6.66675 40.0003C6.66675 58.4097 21.5906 73.3337 40.0001 73.3337ZM40.0001 66.667C54.7277 66.667 66.6667 54.728 66.6667 40.0003C66.6667 25.2727 54.7277 13.3337 40.0001 13.3337C25.2725 13.3337 13.3334 25.2727 13.3334 40.0003C13.3334 54.728 25.2725 66.667 40.0001 66.667Z" fill="#EA5455"/>
<path d="M43.3334 55.3333C43.3334 57.1743 41.8411 58.6667 40.0001 58.6667C38.1591 58.6667 36.6667 57.1743 36.6667 55.3333C36.6667 53.4923 38.1591 52 40.0001 52C41.8411 52 43.3334 53.4923 43.3334 55.3333Z" fill="#EA5455"/>
<path d="M35 23C35 21.1591 36.0002 19.333 40.0001 19.333C44 19.333 45 21.1591 45 23L43.3334 46.4997C43.3334 48.3407 41.8411 49.833 40.0001 49.833C38.1591 49.833 36.6667 48.3407 36.6667 46.4997L35 23Z" fill="#EA5455"/>
</svg>
