<svg width="16" height="18" viewBox="0 0 16 18" fill="none" xmlns="http://www.w3.org/2000/svg">
<path d="M12.4666 7.275L8.46659 11.775C8.33325 11.925 8.19992 12 7.99992 12C7.79992 12 7.66659 11.925 7.53325 11.775L3.53325 7.275C3.26659 6.975 3.26659 6.525 3.53325 6.225C3.79992 5.925 4.19992 5.925 4.46659 6.225L7.99992 10.2L11.5333 6.225C11.7999 5.925 12.1999 5.925 12.4666 6.225C12.7333 6.525 12.7333 6.975 12.4666 7.275Z" fill="black"/>
<mask id="mask0_5399_193611" style="mask-type:alpha" maskUnits="userSpaceOnUse" x="3" y="6" width="10" height="6">
<path d="M12.4666 7.275L8.46659 11.775C8.33325 11.925 8.19992 12 7.99992 12C7.79992 12 7.66659 11.925 7.53325 11.775L3.53325 7.275C3.26659 6.975 3.26659 6.525 3.53325 6.225C3.79992 5.925 4.19992 5.925 4.46659 6.225L7.99992 10.2L11.5333 6.225C11.7999 5.925 12.1999 5.925 12.4666 6.225C12.7333 6.525 12.7333 6.975 12.4666 7.275Z" fill="white"/>
</mask>
<g mask="url(#mask0_5399_193611)">
<rect width="16" height="18" fill="#9E9E9E"/>
</g>
</svg>
