<svg width="18" height="18" viewBox="0 0 18 18" fill="none" xmlns="http://www.w3.org/2000/svg">
<path d="M15.6666 0.666504H2.33329C1.41663 0.666504 0.666626 1.4165 0.666626 2.33317V17.3332L3.99996 13.9998H15.6666C16.5833 13.9998 17.3333 13.2498 17.3333 12.3332V2.33317C17.3333 1.4165 16.5833 0.666504 15.6666 0.666504ZM8.99996 8.1665C8.54163 8.1665 8.16663 7.7915 8.16663 7.33317V3.99984C8.16663 3.5415 8.54163 3.1665 8.99996 3.1665C9.45829 3.1665 9.83329 3.5415 9.83329 3.99984V7.33317C9.83329 7.7915 9.45829 8.1665 8.99996 8.1665ZM9.83329 11.4998H8.16663V9.83317H9.83329V11.4998Z" fill="#7367F0"/>
</svg>
