<svg width="18" height="18" viewBox="0 0 18 18" fill="none" xmlns="http://www.w3.org/2000/svg">
<path d="M0.666626 7.33317H3.99996V3.99984H0.666626V7.33317ZM5.66663 17.3332H8.99996V13.9998H5.66663V17.3332ZM0.666626 17.3332H3.99996V13.9998H0.666626V17.3332ZM0.666626 12.3332H3.99996V8.99984H0.666626V12.3332ZM5.66663 12.3332H8.99996V8.99984H5.66663V12.3332ZM10.6666 17.3332H14V13.9998H10.6666V17.3332ZM13.1666 0.666504C10.8666 0.666504 8.99996 2.53317 8.99996 4.83317C8.99996 7.13317 10.8666 8.99984 13.1666 8.99984C15.4666 8.99984 17.3333 7.13317 17.3333 4.83317C17.3333 2.53317 15.4666 0.666504 13.1666 0.666504ZM13.5833 7.33317H12.75V6.49984H13.5833V7.33317ZM13.5833 5.6665H12.75V2.33317H13.5833V5.6665ZM10.6666 12.3332H14V10.6082C13.725 10.6498 13.45 10.6665 13.1666 10.6665C12.275 10.6665 11.425 10.4665 10.6666 10.0998V12.3332ZM5.66663 3.99984V7.33317H7.89996C7.53329 6.57484 7.33329 5.72484 7.33329 4.83317C7.33329 4.54984 7.34996 4.27484 7.39163 3.99984H5.66663Z" fill="#7367F0"/>
</svg>
