<svg width="18" height="16" viewBox="0 0 20 16" fill="none" xmlns="http://www.w3.org/2000/svg">
<path d="M11.7167 6.90817L10 6.12484L11.7167 5.3415L12.5 3.62484L13.2834 5.3415L15 6.12484L13.2834 6.90817L12.5 8.62484L11.7167 6.90817ZM3.33337 10.2915L4.11671 8.57484L5.83337 7.7915L4.11671 7.00817L3.33337 5.2915L2.55004 7.00817L0.833374 7.7915L2.55004 8.57484L3.33337 10.2915ZM7.08337 6.12484L7.99171 4.1165L10 3.20817L7.99171 2.29984L7.08337 0.291504L6.17504 2.29984L4.16671 3.20817L6.17504 4.1165L7.08337 6.12484ZM3.75004 15.7082L8.75004 10.6998L12.0834 14.0332L19.1667 6.0665L17.9917 4.8915L12.0834 11.5332L8.75004 8.19984L2.50004 14.4582L3.75004 15.7082Z" fill="#7367F0"/>
</svg>
