<svg width="18" height="16" viewBox="0 0 18 16" fill="none" xmlns="http://www.w3.org/2000/svg">
<path d="M8.99935 3.83333V0.5H0.666016V15.5H17.3327V3.83333H8.99935ZM3.99935 13.8333H2.33268V12.1667H3.99935V13.8333ZM3.99935 10.5H2.33268V8.83333H3.99935V10.5ZM3.99935 7.16667H2.33268V5.5H3.99935V7.16667ZM3.99935 3.83333H2.33268V2.16667H3.99935V3.83333ZM7.33268 13.8333H5.66602V12.1667H7.33268V13.8333ZM7.33268 10.5H5.66602V8.83333H7.33268V10.5ZM7.33268 7.16667H5.66602V5.5H7.33268V7.16667ZM7.33268 3.83333H5.66602V2.16667H7.33268V3.83333ZM15.666 13.8333H8.99935V12.1667H10.666V10.5H8.99935V8.83333H10.666V7.16667H8.99935V5.5H15.666V13.8333ZM13.9993 7.16667H12.3327V8.83333H13.9993V7.16667ZM13.9993 10.5H12.3327V12.1667H13.9993V10.5Z" fill="#7367F0"/>
</svg>
