<svg width="18" height="18" viewBox="0 0 20 18" fill="none" xmlns="http://www.w3.org/2000/svg">
<path d="M2.50065 6.91667H0.833984V16.0833C0.833984 17.0083 1.57565 17.75 2.50065 17.75H16.6673V16.0833H2.50065V6.91667Z" fill="#7367F0"/>
<path d="M15.0006 3.58333V1.91667C15.0006 1 14.2506 0.25 13.334 0.25H10.0007C9.08398 0.25 8.33398 1 8.33398 1.91667V3.58333H4.16732V12.75C4.16732 13.6667 4.91732 14.4167 5.83398 14.4167H17.5006C18.4173 14.4167 19.1673 13.6667 19.1673 12.75V3.58333H15.0006ZM10.0007 1.91667H13.334V3.58333H10.0007V1.91667ZM17.5006 12.75H5.83398V5.25H17.5006V12.75Z" fill="#7367F0"/>
</svg>
