<svg width="48" height="48" viewBox="0 0 48 48" fill="none" xmlns="http://www.w3.org/2000/svg">
<rect width="48" height="48" rx="24" fill="#FF9F43" fill-opacity="0.12"/>
<path d="M31.665 16.55L30.245 17.97C28.695 16.74 26.745 16 24.625 16C22.795 16 21.095 16.55 19.675 17.48L21.135 18.94C22.155 18.35 23.355 18 24.625 18C28.495 18 31.625 21.13 31.625 25C31.625 26.27 31.275 27.47 30.685 28.49L32.135 29.94C33.075 28.53 33.625 26.83 33.625 25C33.625 22.88 32.885 20.93 31.655 19.39L33.075 17.97L31.665 16.55ZM27.625 13H21.625V15H27.625V13ZM23.625 21.44L25.625 23.44V20H23.625V21.44ZM15.645 16L14.375 17.27L17.125 20.03C16.175 21.45 15.625 23.16 15.625 25C15.625 29.97 19.645 34 24.625 34C26.465 34 28.175 33.45 29.605 32.5L32.105 35L33.375 33.73L15.645 16ZM24.625 32C20.755 32 17.625 28.87 17.625 25C17.625 23.72 17.975 22.52 18.575 21.48L28.135 31.04C27.105 31.65 25.905 32 24.625 32Z" fill="#FF9F43"/>
</svg>
