<svg width="40" height="40" viewBox="0 0 40 40" fill="none" xmlns="http://www.w3.org/2000/svg">
<rect width="40" height="40" rx="5" fill="#28C76F" fill-opacity="0.12"/>
<path d="M28.3031 11.9279L26.7648 13.4662C25.0856 12.1337 22.9731 11.332 20.6764 11.332C18.6939 11.332 16.8523 11.9279 15.3139 12.9354L16.8956 14.517C18.0006 13.8779 19.3006 13.4987 20.6764 13.4987C24.8689 13.4987 28.2598 16.8895 28.2598 21.082C28.2598 22.4579 27.8806 23.7579 27.2414 24.8629L28.8123 26.4337C29.8306 24.9062 30.4264 23.0645 30.4264 21.082C30.4264 18.7854 29.6248 16.6729 28.2923 15.0045L29.8306 13.4662L28.3031 11.9279ZM23.9264 8.08203H17.4264V10.2487H23.9264V8.08203ZM19.5931 17.2254L21.7598 19.392V15.6654H19.5931V17.2254ZM10.9481 11.332L9.57227 12.7079L12.5514 15.6979C11.5223 17.2362 10.9264 19.0887 10.9264 21.082C10.9264 26.4662 15.2814 30.832 20.6764 30.832C22.6698 30.832 24.5223 30.2362 26.0714 29.207L28.7798 31.9154L30.1556 30.5395L10.9481 11.332ZM20.6764 28.6654C16.4839 28.6654 13.0931 25.2745 13.0931 21.082C13.0931 19.6954 13.4723 18.3954 14.1223 17.2687L24.4789 27.6254C23.3631 28.2862 22.0631 28.6654 20.6764 28.6654Z" fill="#28C76F"/>
</svg>
