<svg width="32" height="32" viewBox="0 0 32 32" fill="none" xmlns="http://www.w3.org/2000/svg">
<rect width="32" height="32" rx="5" fill="#28C76F" fill-opacity="0.12"/>
<path d="M23.665 8.55L22.245 9.97C20.695 8.74 18.745 8 16.625 8C14.795 8 13.095 8.55 11.675 9.48L13.135 10.94C14.155 10.35 15.355 10 16.625 10C20.495 10 23.625 13.13 23.625 17C23.625 18.27 23.275 19.47 22.685 20.49L24.135 21.94C25.075 20.53 25.625 18.83 25.625 17C25.625 14.88 24.885 12.93 23.655 11.39L25.075 9.97L23.665 8.55ZM19.625 5H13.625V7H19.625V5ZM15.625 13.44L17.625 15.44V12H15.625V13.44ZM7.645 8L6.375 9.27L9.125 12.03C8.175 13.45 7.625 15.16 7.625 17C7.625 21.97 11.645 26 16.625 26C18.465 26 20.175 25.45 21.605 24.5L24.105 27L25.375 25.73L7.645 8ZM16.625 24C12.755 24 9.625 20.87 9.625 17C9.625 15.72 9.975 14.52 10.575 13.48L20.135 23.04C19.105 23.65 17.905 24 16.625 24Z" fill="#28C76F"/>
</svg>
