<svg width="34" height="34" viewBox="0 0 34 34" fill="none" xmlns="http://www.w3.org/2000/svg">
<path d="M16.9833 0.333344C7.78331 0.333344 0.333313 7.80001 0.333313 17C0.333313 26.2 7.78331 33.6667 16.9833 33.6667C26.2 33.6667 33.6666 26.2 33.6666 17C33.6666 7.80001 26.2 0.333344 16.9833 0.333344ZM23.6666 23.6667C23.0166 24.3167 21.9666 24.3167 21.3166 23.6667L15.8333 18.1833C15.5166 17.8667 15.3333 17.45 15.3333 17V10.3333C15.3333 9.41668 16.0833 8.66668 17 8.66668C17.9166 8.66668 18.6666 9.41668 18.6666 10.3333V16.3167L23.6666 21.3167C24.3166 21.9667 24.3166 23.0167 23.6666 23.6667Z" fill="#7367F0"/>
</svg>
