<svg width="40" height="40" viewBox="0 0 40 40" fill="none" xmlns="http://www.w3.org/2000/svg">
<rect width="40" height="40" rx="5" fill="#7367F0" fill-opacity="0.12"/>
<path d="M19.9885 9.16797C14.0085 9.16797 9.16602 14.0213 9.16602 20.0013C9.16602 25.9813 14.0085 30.8346 19.9885 30.8346C25.9793 30.8346 30.8327 25.9813 30.8327 20.0013C30.8327 14.0213 25.9793 9.16797 19.9885 9.16797ZM19.9993 28.668C15.211 28.668 11.3327 24.7896 11.3327 20.0013C11.3327 15.213 15.211 11.3346 19.9993 11.3346C24.7877 11.3346 28.666 15.213 28.666 20.0013C28.666 24.7896 24.7877 28.668 19.9993 28.668Z" fill="#7367F0"/>
<path d="M20.541 14.5846H18.916V21.0846L24.6035 24.4971L25.416 23.1646L20.541 20.2721V14.5846Z" fill="#7367F0"/>
</svg>
