<svg width="33" height="22" viewBox="0 0 33 22" fill="none" xmlns="http://www.w3.org/2000/svg">
<path d="M26.3 8.38536C25.3933 3.78536 21.3533 0.332031 16.5 0.332031C12.6467 0.332031 9.3 2.5187 7.63333 5.7187C3.62 6.14536 0.5 9.54536 0.5 13.6654C0.5 18.0787 4.08667 21.6654 8.5 21.6654H25.8333C29.5133 21.6654 32.5 18.6787 32.5 14.9987C32.5 11.4787 29.7667 8.62536 26.3 8.38536ZM25.8333 18.9987H8.5C5.55333 18.9987 3.16667 16.612 3.16667 13.6654C3.16667 10.932 5.20667 8.65203 7.91333 8.37203L9.34 8.22536L10.0067 6.9587C11.2733 4.5187 13.7533 2.9987 16.5 2.9987C19.9933 2.9987 23.0067 5.4787 23.6867 8.90536L24.0867 10.9054L26.1267 11.052C28.2067 11.1854 29.8333 12.932 29.8333 14.9987C29.8333 17.1987 28.0333 18.9987 25.8333 18.9987ZM11.1667 12.332H14.5667V16.332H18.4333V12.332H21.8333L16.5 6.9987L11.1667 12.332Z" fill="#7367F0"/>
</svg>
