<svg width="18" height="20" viewBox="0 0 16 18" fill="none" xmlns="http://www.w3.org/2000/svg">
<path d="M11.3333 8.60841C11.0917 8.36675 10.6917 8.36675 10.45 8.60841L6.825 12.2334L5.5 10.9084C5.25833 10.6667 4.85833 10.6667 4.61667 10.9084C4.375 11.1501 4.375 11.5501 4.61667 11.7917L6.23333 13.4084C6.55833 13.7334 7.08333 13.7334 7.40833 13.4084L11.325 9.49175C11.575 9.25008 11.575 8.85008 11.3333 8.60841ZM13.8333 2.33341H13V1.50008C13 1.04175 12.625 0.666748 12.1667 0.666748C11.7083 0.666748 11.3333 1.04175 11.3333 1.50008V2.33341H4.66667V1.50008C4.66667 1.04175 4.29167 0.666748 3.83333 0.666748C3.375 0.666748 3 1.04175 3 1.50008V2.33341H2.16667C1.24167 2.33341 0.508333 3.08341 0.508333 4.00008L0.5 15.6667C0.5 16.5834 1.24167 17.3334 2.16667 17.3334H13.8333C14.75 17.3334 15.5 16.5834 15.5 15.6667V4.00008C15.5 3.08341 14.75 2.33341 13.8333 2.33341ZM13 15.6667H3C2.54167 15.6667 2.16667 15.2917 2.16667 14.8334V6.50008H13.8333V14.8334C13.8333 15.2917 13.4583 15.6667 13 15.6667Z" fill="#7367F0"/>
</svg>
