<svg width="18" height="20" viewBox="0 0 16 18" fill="none" xmlns="http://www.w3.org/2000/svg">
<path d="M6.2 13.5584L7.79167 11.9667L9.38333 13.5584C9.625 13.8001 10.025 13.8001 10.2667 13.5584C10.5083 13.3167 10.5083 12.9167 10.2667 12.6751L8.675 11.0834L10.2667 9.49175C10.5083 9.25008 10.5083 8.85008 10.2667 8.60841C10.025 8.36675 9.625 8.36675 9.38333 8.60841L7.79167 10.2001L6.2 8.60841C5.95833 8.36675 5.55833 8.36675 5.31667 8.60841C5.075 8.85008 5.075 9.25008 5.31667 9.49175L6.90833 11.0834L5.31667 12.6751C5.075 12.9167 5.075 13.3167 5.31667 13.5584C5.55833 13.8001 5.95833 13.8001 6.2 13.5584ZM13.8333 2.33341H13V1.50008C13 1.04175 12.625 0.666748 12.1667 0.666748C11.7083 0.666748 11.3333 1.04175 11.3333 1.50008V2.33341H4.66667V1.50008C4.66667 1.04175 4.29167 0.666748 3.83333 0.666748C3.375 0.666748 3 1.04175 3 1.50008V2.33341H2.16667C1.24167 2.33341 0.508333 3.08341 0.508333 4.00008L0.5 15.6667C0.5 16.5834 1.24167 17.3334 2.16667 17.3334H13.8333C14.75 17.3334 15.5 16.5834 15.5 15.6667V4.00008C15.5 3.08341 14.75 2.33341 13.8333 2.33341ZM13 15.6667H3C2.54167 15.6667 2.16667 15.2917 2.16667 14.8334V6.50008H13.8333V14.8334C13.8333 15.2917 13.4583 15.6667 13 15.6667Z" fill="#7367F0"/>
</svg>
