<svg width="18" height="18" viewBox="0 0 14 18" fill="none" xmlns="http://www.w3.org/2000/svg">
<path d="M7.41667 3.99935C6.5 3.99935 5.75 3.24935 5.75 2.33268C5.75 1.41602 6.5 0.666016 7.41667 0.666016C8.33333 0.666016 9.08333 1.41602 9.08333 2.33268C9.08333 3.24935 8.33333 3.99935 7.41667 3.99935ZM11.5833 0.666016H13.25C13.25 2.91602 12.475 4.34102 11.3333 5.24935C10.9167 5.58268 10.4167 5.83268 9.91667 5.99935V17.3327H8.25V12.3327H6.58333V17.3327H4.91667V7.41602C4.66667 7.49935 4.5 7.58268 4.41667 7.66602C3.975 8.00768 3.25 8.52435 3.25 10.666H1.58333C1.58333 8.94935 1.875 7.51602 3.34167 6.25768C4.25833 5.50768 5.75 4.83268 7.41667 4.83268C9.08333 4.83268 9.65 4.44935 10.3167 3.94935C10.7167 3.62435 11.5833 2.96602 11.5833 0.666016ZM0.75 12.3327H3.25V17.3327H0.75V12.3327Z" fill="#7367F0"/>
</svg>
