<svg width="18" height="16" viewBox="0 0 18 16" fill="none" xmlns="http://www.w3.org/2000/svg">
<path d="M14.1673 10.5H15.834V12.1667H14.1673V10.5ZM14.1673 7.16667H15.834V8.83333H14.1673V7.16667ZM14.1673 3.83333H15.834V5.5H14.1673V3.83333ZM11.4507 3.83333L12.5007 4.53333V3.83333H11.4507Z" fill="#7367F0"/>
<path d="M8.33398 0.5V1.75833L10.0007 2.86667V2.16667H17.5006V13.8333H14.1673V15.5H19.1673V0.5H8.33398Z" fill="#7367F0"/>
<path d="M6.80898 2.75L12.5007 6.54167V15.5H0.833984V6.73333L6.80898 2.75ZM8.33398 13.8333H10.834V7.3L6.80898 4.74167L2.50065 7.48333V13.8333H5.00065V8.83333H8.33398V13.8333Z" fill="#7367F0"/>
</svg>
