<svg width="48" height="48" viewBox="0 0 48 48" fill="none" xmlns="http://www.w3.org/2000/svg">
<rect width="48" height="48" rx="24" fill="#00CFE8" fill-opacity="0.12"/>
<path d="M21.4299 15.5819H25.4299V17.5819H21.8299L23.8299 19.5819H31.4299V27.1819L33.4299 29.1819V19.5819C33.4299 18.4719 32.5399 17.5819 31.4299 17.5819H27.4299V15.5819C27.4299 14.4719 26.5399 13.5819 25.4299 13.5819H21.4299C20.4399 13.5819 19.6299 14.2819 19.4699 15.2219L21.4299 17.1819V15.5819ZM14.8299 13.4219L13.4199 14.8319L16.1699 17.5819H15.4299C14.3199 17.5819 13.4399 18.4719 13.4399 19.5819L13.4299 30.5819C13.4299 31.6919 14.3199 32.5819 15.4299 32.5819H31.1699L33.1699 34.5819L34.5799 33.1719L14.8299 13.4219ZM15.4299 30.5819V19.5819H18.1699L29.1699 30.5819H15.4299Z" fill="#00CFE8"/>
</svg>
