<svg width="48" height="48" viewBox="0 0 48 48" fill="none" xmlns="http://www.w3.org/2000/svg">
<rect width="48" height="48" rx="24" fill="#28C76F" fill-opacity="0.12"/>
<path d="M24 24C22.9 24 22 23.1 22 22C22 20.9 22.9 20 24 20C25.1 20 26 20.9 26 22C26 23.1 25.1 24 24 24ZM30 22.2C30 18.57 27.35 16 24 16C20.65 16 18 18.57 18 22.2C18 24.54 19.95 27.64 24 31.34C28.05 27.64 30 24.54 30 22.2ZM24 14C28.2 14 32 17.22 32 22.2C32 25.52 29.33 29.45 24 34C18.67 29.45 16 25.52 16 22.2C16 17.22 19.8 14 24 14Z" fill="#28C76F"/>
</svg>
