<svg width="20" height="21" viewBox="0 0 20 21" fill="none" xmlns="http://www.w3.org/2000/svg">
<path d="M15.0026 7.58333H14.1693V5.91667C14.1693 3.61667 12.3026 1.75 10.0026 1.75C7.7026 1.75 5.83594 3.61667 5.83594 5.91667V7.58333H5.0026C4.08594 7.58333 3.33594 8.33333 3.33594 9.25V17.5833C3.33594 18.5 4.08594 19.25 5.0026 19.25H15.0026C15.9193 19.25 16.6693 18.5 16.6693 17.5833V9.25C16.6693 8.33333 15.9193 7.58333 15.0026 7.58333ZM7.5026 5.91667C7.5026 4.53333 8.61927 3.41667 10.0026 3.41667C11.3859 3.41667 12.5026 4.53333 12.5026 5.91667V7.58333H7.5026V5.91667ZM15.0026 17.5833H5.0026V9.25H15.0026V17.5833ZM10.0026 15.0833C10.9193 15.0833 11.6693 14.3333 11.6693 13.4167C11.6693 12.5 10.9193 11.75 10.0026 11.75C9.08594 11.75 8.33594 12.5 8.33594 13.4167C8.33594 14.3333 9.08594 15.0833 10.0026 15.0833Z" fill="#82868B"/>
</svg>
