<svg width="18" height="15" viewBox="0 0 18 15" fill="none" xmlns="http://www.w3.org/2000/svg">
<path d="M2.40495 12.0827V11.541C2.40495 11.2577 2.53828 10.991 2.74661 10.866C4.15495 10.0244 5.76328 9.58268 7.40495 9.58268C7.42995 9.58268 7.44661 9.58268 7.47161 9.59102C7.55495 9.00768 7.72161 8.44935 7.96328 7.94102C7.77995 7.92435 7.59661 7.91602 7.40495 7.91602C5.38828 7.91602 3.50495 8.47435 1.89661 9.43268C1.16328 9.86602 0.738281 10.6827 0.738281 11.541V13.7494H8.45495C8.10495 13.2494 7.82995 12.6827 7.64661 12.0827H2.40495Z" fill="#7367F0"/>
<path d="M7.40495 7.08268C9.24661 7.08268 10.7383 5.59102 10.7383 3.74935C10.7383 1.90768 9.24661 0.416016 7.40495 0.416016C5.56328 0.416016 4.07161 1.90768 4.07161 3.74935C4.07161 5.59102 5.56328 7.08268 7.40495 7.08268ZM7.40495 2.08268C8.32161 2.08268 9.07161 2.83268 9.07161 3.74935C9.07161 4.66602 8.32161 5.41602 7.40495 5.41602C6.48828 5.41602 5.73828 4.66602 5.73828 3.74935C5.73828 2.83268 6.48828 2.08268 7.40495 2.08268Z" fill="#7367F0"/>
<path d="M16.3633 10.416C16.3633 10.2327 16.3383 10.066 16.3133 9.89102L17.2633 9.04935L16.4299 7.60768L15.2216 8.01602C14.9549 7.79102 14.6549 7.61602 14.3216 7.49102L14.0716 6.24935H12.4049L12.1549 7.49102C11.8216 7.61602 11.5216 7.79102 11.2549 8.01602L10.0466 7.60768L9.21328 9.04935L10.1633 9.89102C10.1383 10.066 10.1133 10.2327 10.1133 10.416C10.1133 10.5993 10.1383 10.766 10.1633 10.941L9.21328 11.7827L10.0466 13.2244L11.2549 12.816C11.5216 13.041 11.8216 13.216 12.1549 13.341L12.4049 14.5827H14.0716L14.3216 13.341C14.6549 13.216 14.9549 13.041 15.2216 12.816L16.4299 13.2244L17.2633 11.7827L16.3133 10.941C16.3383 10.766 16.3633 10.5993 16.3633 10.416ZM13.2383 12.0827C12.3216 12.0827 11.5716 11.3327 11.5716 10.416C11.5716 9.49935 12.3216 8.74935 13.2383 8.74935C14.1549 8.74935 14.9049 9.49935 14.9049 10.416C14.9049 11.3327 14.1549 12.0827 13.2383 12.0827Z" fill="#7367F0"/>
</svg>
