<svg width="48" height="48" viewBox="0 0 48 48" fill="none" xmlns="http://www.w3.org/2000/svg">
<rect width="48" height="48" rx="24" fill="#7367F0"/>
<path d="M24 14C18.48 14 14 18.48 14 24C14 29.52 18.48 34 24 34C29.52 34 34 29.52 34 24C34 18.48 29.52 14 24 14ZM24 32C19.59 32 16 28.41 16 24C16 19.59 19.59 16 24 16C28.41 16 32 19.59 32 24C32 28.41 28.41 32 24 32ZM24.31 23.14C22.54 22.69 21.97 22.2 21.97 21.47C21.97 20.63 22.76 20.04 24.07 20.04C25.45 20.04 25.97 20.7 26.01 21.68H27.72C27.67 20.34 26.85 19.11 25.23 18.71V17H22.9V18.69C21.39 19.01 20.18 19.99 20.18 21.5C20.18 23.29 21.67 24.19 23.84 24.71C25.79 25.17 26.18 25.86 26.18 26.58C26.18 27.11 25.79 27.97 24.08 27.97C22.48 27.97 21.85 27.25 21.76 26.33H20.04C20.14 28.03 21.4 28.99 22.9 29.3V31H25.24V29.33C26.76 29.04 27.96 28.17 27.97 26.56C27.96 24.36 26.07 23.6 24.31 23.14Z" fill="white"/>
</svg>
