<svg width="18" height="18" viewBox="0 0 18 18" fill="none" xmlns="http://www.w3.org/2000/svg">
<path d="M8.99996 0.666992C4.39996 0.666992 0.666626 4.40033 0.666626 9.00033C0.666626 13.6003 4.39996 17.3337 8.99996 17.3337C13.6 17.3337 17.3333 13.6003 17.3333 9.00033C17.3333 4.40033 13.6 0.666992 8.99996 0.666992ZM8.99996 15.667C5.32496 15.667 2.33329 12.6753 2.33329 9.00033C2.33329 5.32533 5.32496 2.33366 8.99996 2.33366C12.675 2.33366 15.6666 5.32533 15.6666 9.00033C15.6666 12.6753 12.675 15.667 8.99996 15.667ZM9.25829 8.28366C7.78329 7.90866 7.30829 7.50033 7.30829 6.89199C7.30829 6.19199 7.96663 5.70033 9.05829 5.70033C10.2083 5.70033 10.6416 6.25033 10.675 7.06699H12.1C12.0583 5.95033 11.375 4.92533 10.025 4.59199V3.16699H8.08329V4.57533C6.82496 4.84199 5.81663 5.65866 5.81663 6.91699C5.81663 8.40866 7.05829 9.15866 8.86663 9.59199C10.4916 9.97533 10.8166 10.5503 10.8166 11.1503C10.8166 11.592 10.4916 12.3087 9.06663 12.3087C7.73329 12.3087 7.20829 11.7087 7.13329 10.942H5.69996C5.78329 12.3587 6.83329 13.1587 8.08329 13.417V14.8337H10.0333V13.442C11.3 13.2003 12.3 12.4753 12.3083 11.1337C12.3 9.30033 10.725 8.66699 9.25829 8.28366Z" fill="#7367F0"/>
</svg>
