<svg width="48" height="48" viewBox="0 0 48 48" fill="none" xmlns="http://www.w3.org/2000/svg">
<rect width="48" height="48" rx="24" fill="#7367F0"/>
<path d="M21.5 20V26L26.2 28.9L27 27.7L23 25.3V20H21.5Z" fill="#F6F5FB"/>
<path d="M29.42 24C29.47 24.33 29.5 24.66 29.5 25C29.5 28.9 26.4 32 22.5 32C18.6 32 15.5 28.9 15.5 25C15.5 21.1 18.6 18 22.5 18C23.2 18 23.87 18.1 24.5 18.29V16.23C23.86 16.08 23.19 16 22.5 16C17.5 16 13.5 20 13.5 25C13.5 30 17.5 34 22.5 34C27.5 34 31.5 30 31.5 25C31.5 24.66 31.48 24.33 31.44 24H29.42Z" fill="#F6F5FB"/>
<path d="M31.5 17V14H29.5V17H26.5V19H29.5V22H31.5V19H34.5V17H31.5Z" fill="#F6F5FB"/>
</svg>
