<svg width="49" height="48" viewBox="0 0 49 48" fill="none" xmlns="http://www.w3.org/2000/svg">
<g clip-path="url(#clip0_6790_203674)">
<rect x="0.666504" width="48" height="48" rx="24" fill="#FF9F43"/>
<path d="M22.1665 20V26L26.8665 28.9L27.6665 27.7L23.6665 25.3V20H22.1665Z" fill="#F6F5FB"/>
<path d="M30.0865 24C30.1365 24.33 30.1665 24.66 30.1665 25C30.1665 28.9 27.0665 32 23.1665 32C19.2665 32 16.1665 28.9 16.1665 25C16.1665 21.1 19.2665 18 23.1665 18C23.8665 18 24.5365 18.1 25.1665 18.29V16.23C24.5265 16.08 23.8565 16 23.1665 16C18.1665 16 14.1665 20 14.1665 25C14.1665 30 18.1665 34 23.1665 34C28.1665 34 32.1665 30 32.1665 25C32.1665 24.66 32.1465 24.33 32.1065 24H30.0865Z" fill="#F6F5FB"/>
<path d="M32.1665 17V14H30.1665V17H27.1665V19H30.1665V22H32.1665V19H35.1665V17H32.1665Z" fill="#F6F5FB"/>
</g>
<defs>
<clipPath id="clip0_6790_203674">
<rect width="48" height="48" fill="white" transform="translate(0.666504)"/>
</clipPath>
</defs>
</svg>
