<svg width="96" height="97" viewBox="0 0 96 97" fill="none" xmlns="http://www.w3.org/2000/svg">
<path d="M78 74.26L19.08 13.46L14 18.54L25.2 29.74V29.78C23.12 33.74 22 38.42 22 43.46V63.46L14 71.46V75.46H68.92L76.92 83.46L82 78.38L78 74.26ZM46 87.5C50.44 87.5 54 83.94 54 79.5H38C38 83.94 41.56 87.5 46 87.5ZM70 58.22V43.5C70 31.18 63.44 20.94 52 18.22V15.5C52 12.18 49.32 9.5 46 9.5C42.68 9.5 40 12.18 40 15.5V18.22C39.4 18.34 38.84 18.54 38.32 18.7C37.92 18.82 37.52 18.98 37.12 19.14H37.08C37.04 19.14 37.04 19.14 37 19.18C36.08 19.54 35.16 19.98 34.28 20.42C34.28 20.42 34.24 20.42 34.24 20.46L70 58.22Z" fill="#7367F0" fill-opacity="0.65"/>
</svg>
