<svg width="16" height="20" viewBox="0 0 16 20" fill="none" xmlns="http://www.w3.org/2000/svg">
<path d="M8.00124 19.75C9.10124 19.75 10.0012 18.85 10.0012 17.75H6.00124C6.00124 18.85 6.89124 19.75 8.00124 19.75ZM14.0012 13.75V8.75C14.0012 5.68 12.3612 3.11 9.50124 2.43V1.75C9.50124 0.92 8.83124 0.25 8.00124 0.25C7.17124 0.25 6.50124 0.92 6.50124 1.75V2.43C3.63124 3.11 2.00124 5.67 2.00124 8.75V13.75L0.711242 15.04C0.0812416 15.67 0.521241 16.75 1.41124 16.75H14.5812C15.4712 16.75 15.9212 15.67 15.2912 15.04L14.0012 13.75Z" fill="#7367F0"/>
</svg>
