<svg width="40" height="40" viewBox="0 0 40 40" fill="none" xmlns="http://www.w3.org/2000/svg">
<rect width="40" height="40" rx="20" fill="#00CFE8"/>
<path d="M13.3334 23.3334V26.6667C13.3334 27.5834 14.0834 28.3334 15 28.3334H25C25.9167 28.3334 26.6667 27.5834 26.6667 26.6667V23.3334C26.6667 22.4167 25.9167 21.6667 25 21.6667H15C14.0834 21.6667 13.3334 22.4167 13.3334 23.3334ZM24.1667 25.0001H15.8334C15.375 25.0001 15 24.6251 15 24.1667C15 23.7084 15.375 23.3334 15.8334 23.3334H24.1667C24.625 23.3334 25 23.7084 25 24.1667C25 24.6251 24.625 25.0001 24.1667 25.0001ZM20 11.6667C17.95 11.6667 16.2334 13.1584 15.8917 15.1084C15.825 15.5417 15.9417 15.9834 16.1917 16.3334L19.325 20.7167C19.6584 21.1834 20.35 21.1834 20.6834 20.7167L23.8167 16.3334C24.0667 15.9834 24.1834 15.5417 24.1084 15.1084C23.7667 13.1584 22.05 11.6667 20 11.6667Z" fill="white"/>
</svg>
