<svg width="18" height="14" viewBox="0 0 18 14" fill="none" xmlns="http://www.w3.org/2000/svg">
<path d="M11.5 10.3335H14C14.4583 10.3335 14.8333 9.9585 14.8333 9.50016V4.50016C14.8333 4.04183 14.4583 3.66683 14 3.66683H11.5C11.0416 3.66683 10.6666 4.04183 10.6666 4.50016V9.50016C10.6666 9.9585 11.0416 10.3335 11.5 10.3335ZM12.3333 5.3335H13.1666V8.66683H12.3333V5.3335ZM6.49996 10.3335H8.99996C9.45829 10.3335 9.83329 9.9585 9.83329 9.50016V4.50016C9.83329 4.04183 9.45829 3.66683 8.99996 3.66683H6.49996C6.04163 3.66683 5.66663 4.04183 5.66663 4.50016V9.50016C5.66663 9.9585 6.04163 10.3335 6.49996 10.3335ZM7.33329 5.3335H8.16663V8.66683H7.33329V5.3335ZM3.99996 3.66683C3.54163 3.66683 3.16663 4.04183 3.16663 4.50016V9.50016C3.16663 9.9585 3.54163 10.3335 3.99996 10.3335C4.45829 10.3335 4.83329 9.9585 4.83329 9.50016V4.50016C4.83329 4.04183 4.45829 3.66683 3.99996 3.66683ZM0.666626 2.00016V12.0002C0.666626 12.9168 1.41663 13.6668 2.33329 13.6668H15.6666C16.5833 13.6668 17.3333 12.9168 17.3333 12.0002V2.00016C17.3333 1.0835 16.5833 0.333496 15.6666 0.333496H2.33329C1.41663 0.333496 0.666626 1.0835 0.666626 2.00016ZM14.8333 12.0002H3.16663C2.70829 12.0002 2.33329 11.6252 2.33329 11.1668V2.8335C2.33329 2.37516 2.70829 2.00016 3.16663 2.00016H14.8333C15.2916 2.00016 15.6666 2.37516 15.6666 2.8335V11.1668C15.6666 11.6252 15.2916 12.0002 14.8333 12.0002Z" fill="#7367F0"/>
</svg>
