<svg width="18" height="12" viewBox="0 0 20 12" fill="none" xmlns="http://www.w3.org/2000/svg">
<path d="M13.3334 5.16675C14.7167 5.16675 15.825 4.05008 15.825 2.66675C15.825 1.28341 14.7167 0.166748 13.3334 0.166748C11.95 0.166748 10.8334 1.28341 10.8334 2.66675C10.8334 4.05008 11.95 5.16675 13.3334 5.16675ZM6.66671 5.16675C8.05004 5.16675 9.15837 4.05008 9.15837 2.66675C9.15837 1.28341 8.05004 0.166748 6.66671 0.166748C5.28337 0.166748 4.16671 1.28341 4.16671 2.66675C4.16671 4.05008 5.28337 5.16675 6.66671 5.16675ZM6.66671 6.83342C4.72504 6.83342 0.833374 7.80842 0.833374 9.75008V11.0001C0.833374 11.4584 1.20837 11.8334 1.66671 11.8334H11.6667C12.125 11.8334 12.5 11.4584 12.5 11.0001V9.75008C12.5 7.80842 8.60837 6.83342 6.66671 6.83342ZM13.3334 6.83342C13.0917 6.83342 12.8167 6.85008 12.525 6.87508C12.5417 6.88342 12.55 6.90008 12.5584 6.90842C13.5084 7.60008 14.1667 8.52508 14.1667 9.75008V11.0001C14.1667 11.2917 14.1084 11.5751 14.0167 11.8334H18.3334C18.7917 11.8334 19.1667 11.4584 19.1667 11.0001V9.75008C19.1667 7.80842 15.275 6.83342 13.3334 6.83342Z" fill="#7367F0"/>
</svg>
