<svg width="18" height="14" viewBox="0 0 20 14" fill="none" xmlns="http://www.w3.org/2000/svg">
<path d="M7.50004 7.00016C9.34099 7.00016 10.8334 5.50778 10.8334 3.66683C10.8334 1.82588 9.34099 0.333496 7.50004 0.333496C5.65909 0.333496 4.16671 1.82588 4.16671 3.66683C4.16671 5.50778 5.65909 7.00016 7.50004 7.00016Z" fill="#7367F0"/>
<path d="M7.50004 8.66683C5.27504 8.66683 0.833374 9.78349 0.833374 12.0002V12.8335C0.833374 13.2918 1.20837 13.6668 1.66671 13.6668H13.3334C13.7917 13.6668 14.1667 13.2918 14.1667 12.8335V12.0002C14.1667 9.78349 9.72504 8.66683 7.50004 8.66683Z" fill="#7367F0"/>
<path d="M16.6667 5.3335V2.8335H15V5.3335H12.5V7.00016H15V9.50016H16.6667V7.00016H19.1667V5.3335H16.6667Z" fill="#7367F0"/>
</svg>
