<svg width="18" height="12" viewBox="0 0 18 12" fill="none" xmlns="http://www.w3.org/2000/svg">
<path d="M17.5006 0.166016H19.1673V11.8327H17.5006V0.166016ZM14.1673 0.166016H15.834V11.8327H14.1673V0.166016ZM11.6673 0.166016H1.66732C1.20898 0.166016 0.833984 0.541016 0.833984 0.999349V10.9994C0.833984 11.4577 1.20898 11.8327 1.66732 11.8327H11.6673C12.1257 11.8327 12.5007 11.4577 12.5007 10.9994V0.999349C12.5007 0.541016 12.1257 0.166016 11.6673 0.166016ZM10.834 10.166H2.50065V1.83268H10.834V10.166Z" fill="#7367F0"/>
<path d="M6.66732 5.90768C7.56478 5.90768 8.29232 5.18015 8.29232 4.28268C8.29232 3.38522 7.56478 2.65768 6.66732 2.65768C5.76985 2.65768 5.04232 3.38522 5.04232 4.28268C5.04232 5.18015 5.76985 5.90768 6.66732 5.90768Z" fill="#7367F0"/>
<path d="M9.90898 8.79102C9.90898 7.70768 7.75065 7.16602 6.66732 7.16602C5.58398 7.16602 3.42565 7.70768 3.42565 8.79102V9.33268H9.90898V8.79102Z" fill="#7367F0"/>
</svg>
