<svg width="14" height="14" viewBox="0 0 14 14" fill="none" xmlns="http://www.w3.org/2000/svg">
<path fill-rule="evenodd" clip-rule="evenodd" d="M5.4001 2.20156C3.63279 2.20156 2.2001 3.63425 2.2001 5.40156C2.2001 7.16887 3.63279 8.60156 5.4001 8.60156C7.16741 8.60156 8.6001 7.16887 8.6001 5.40156C8.6001 3.63425 7.16741 2.20156 5.4001 2.20156ZM0.600098 5.40156C0.600098 2.7506 2.74913 0.601562 5.4001 0.601562C8.05106 0.601562 10.2001 2.7506 10.2001 5.40156C10.2001 6.43823 9.87146 7.39813 9.3127 8.18279L13.1658 12.0359C13.4782 12.3483 13.4782 12.8548 13.1658 13.1672C12.8534 13.4797 12.3468 13.4797 12.0344 13.1672L8.18133 9.31416C7.39667 9.87293 6.43676 10.2016 5.4001 10.2016C2.74913 10.2016 0.600098 8.05253 0.600098 5.40156Z" fill="#BFBFBF"/>
</svg>
