<svg width="18" height="18" viewBox="0 0 18 18" fill="none" xmlns="http://www.w3.org/2000/svg">
<path d="M12.9766 11.4713H12.1866L11.9066 11.2013C13.1066 9.80133 13.7266 7.89133 13.3866 5.86133C12.9166 3.08133 10.5966 0.861329 7.79658 0.521329C3.56658 0.00132874 0.00657776 3.56133 0.526578 7.79133C0.866578 10.5913 3.08658 12.9113 5.86658 13.3813C7.89658 13.7213 9.80658 13.1013 11.2066 11.9013L11.4766 12.1813V12.9713L15.7266 17.2213C16.1366 17.6313 16.8066 17.6313 17.2166 17.2213C17.6266 16.8113 17.6266 16.1413 17.2166 15.7313L12.9766 11.4713ZM6.97658 11.4713C4.48658 11.4713 2.47658 9.46133 2.47658 6.97133C2.47658 4.48133 4.48658 2.47133 6.97658 2.47133C9.46658 2.47133 11.4766 4.48133 11.4766 6.97133C11.4766 9.46133 9.46658 11.4713 6.97658 11.4713Z" fill="#7367F0"/>
</svg>
