<svg width="18" height="22" viewBox="0 0 18 22" fill="none" xmlns="http://www.w3.org/2000/svg">
<path d="M0.333008 12.3327V17.3327H13.6663V12.3327C13.6663 11.416 12.9163 10.666 11.9997 10.666H1.99967C1.08301 10.666 0.333008 11.416 0.333008 12.3327ZM11.9997 13.9993H1.99967V12.3327H11.9997V13.9993ZM6.99967 0.666016C4.69967 0.666016 2.83301 2.53268 2.83301 4.83268L6.99967 10.666L11.1663 4.83268C11.1663 2.53268 9.29967 0.666016 6.99967 0.666016ZM6.99967 8.16602L4.49967 4.83268C4.49967 3.44935 5.61634 2.33268 6.99967 2.33268C8.38301 2.33268 9.49967 3.44935 9.49967 4.83268L6.99967 8.16602Z" fill="#7367F0"/>
</svg>
