<svg width="18" height="22" viewBox="0 0 14 18" fill="none" xmlns="http://www.w3.org/2000/svg">
<path d="M13.175 5.17508L9.15004 1.15008C8.84171 0.841748 8.41671 0.666748 7.97504 0.666748H2.00004C1.08337 0.666748 0.341708 1.41675 0.341708 2.33341L0.333374 15.6667C0.333374 16.5834 1.07504 17.3334 1.99171 17.3334H12C12.9167 17.3334 13.6667 16.5834 13.6667 15.6667V6.35842C13.6667 5.91675 13.4917 5.49175 13.175 5.17508ZM5.52504 13.4084L3.75837 11.6417C3.43337 11.3167 3.43337 10.7917 3.75837 10.4667C4.08337 10.1417 4.60837 10.1417 4.93337 10.4667L6.10837 11.6417L9.05837 8.69175C9.38337 8.36675 9.90837 8.36675 10.2334 8.69175C10.5584 9.01675 10.5584 9.54175 10.2334 9.86675L6.70004 13.4001C6.38337 13.7334 5.85004 13.7334 5.52504 13.4084ZM8.66671 6.50008C8.20837 6.50008 7.83337 6.12508 7.83337 5.66675V1.91675L12.4167 6.50008H8.66671Z" fill="#7367F0"/>
</svg>
