<svg width="16" height="5" viewBox="0 0 16 5" fill="none" xmlns="http://www.w3.org/2000/svg">
<path d="M2 0.496338C0.9 0.496338 0 1.39634 0 2.49634C0 3.59634 0.9 4.49634 2 4.49634C3.1 4.49634 4 3.59634 4 2.49634C4 1.39634 3.1 0.496338 2 0.496338ZM14 0.496338C12.9 0.496338 12 1.39634 12 2.49634C12 3.59634 12.9 4.49634 14 4.49634C15.1 4.49634 16 3.59634 16 2.49634C16 1.39634 15.1 0.496338 14 0.496338ZM8 0.496338C6.9 0.496338 6 1.39634 6 2.49634C6 3.59634 6.9 4.49634 8 4.49634C9.1 4.49634 10 3.59634 10 2.49634C10 1.39634 9.1 0.496338 8 0.496338Z" fill="#7367F0"/>
</svg>
