<svg width="40" height="40" viewBox="0 0 40 40" fill="none" xmlns="http://www.w3.org/2000/svg">
<path d="M23.3359 2.5H16.6693C15.7526 2.5 15.0026 3.25 15.0026 4.16667C15.0026 5.08333 15.7526 5.83333 16.6693 5.83333H23.3359C24.2526 5.83333 25.0026 5.08333 25.0026 4.16667C25.0026 3.25 24.2526 2.5 23.3359 2.5ZM20.0026 24.1667C20.9193 24.1667 21.6693 23.4167 21.6693 22.5V15.8333C21.6693 14.9167 20.9193 14.1667 20.0026 14.1667C19.0859 14.1667 18.3359 14.9167 18.3359 15.8333V22.5C18.3359 23.4167 19.0859 24.1667 20.0026 24.1667ZM31.7193 13.15L32.9693 11.9C33.6026 11.2667 33.6193 10.2167 32.9693 9.56667L32.9526 9.55C32.3026 8.9 31.2693 8.91667 30.6193 9.55L29.3693 10.8C26.7859 8.73333 23.5359 7.5 20.0026 7.5C12.0026 7.5 5.20261 14.1 5.00261 22.1C4.78594 30.5667 11.5693 37.5 20.0026 37.5C28.3026 37.5 35.0026 30.7833 35.0026 22.5C35.0026 18.9667 33.7693 15.7167 31.7193 13.15ZM20.0026 34.1667C13.5526 34.1667 8.33594 28.95 8.33594 22.5C8.33594 16.05 13.5526 10.8333 20.0026 10.8333C26.4526 10.8333 31.6693 16.05 31.6693 22.5C31.6693 28.95 26.4526 34.1667 20.0026 34.1667Z" fill="#7367F0"/>
</svg>
