<svg width="40" height="40" viewBox="0 0 40 40" fill="none" xmlns="http://www.w3.org/2000/svg">
<rect width="40" height="40" rx="5" fill="#FF9F43" fill-opacity="0.12"/>
<path d="M23.25 8.625H16.75V10.7917H23.25V8.625ZM18.9167 22.7083H21.0833V16.2083H18.9167V22.7083ZM27.6158 15.5475L29.1542 14.0092C28.6883 13.4567 28.1792 12.9367 27.6267 12.4817L26.0883 14.02C24.4092 12.6767 22.2967 11.875 20 11.875C14.6158 11.875 10.25 16.2408 10.25 21.625C10.25 27.0092 14.605 31.375 20 31.375C25.395 31.375 29.75 27.0092 29.75 21.625C29.75 19.3283 28.9483 17.2158 27.6158 15.5475ZM20 29.2083C15.8075 29.2083 12.4167 25.8175 12.4167 21.625C12.4167 17.4325 15.8075 14.0417 20 14.0417C24.1925 14.0417 27.5833 17.4325 27.5833 21.625C27.5833 25.8175 24.1925 29.2083 20 29.2083Z" fill="#FF9F43"/>
</svg>
