<svg width="34" height="38" viewBox="0 0 34 38" fill="none" xmlns="http://www.w3.org/2000/svg">
<path d="M29.7747 6.58317L27.408 8.94984C24.8247 6.89984 21.5747 5.6665 18.0413 5.6665C14.9913 5.6665 12.158 6.58317 9.79134 8.13317L12.2247 10.5665C13.9247 9.58317 15.9247 8.99984 18.0413 8.99984C24.4913 8.99984 29.708 14.2165 29.708 20.6665C29.708 22.7832 29.1247 24.7832 28.1413 26.4832L30.558 28.8998C32.1247 26.5498 33.0413 23.7165 33.0413 20.6665C33.0413 17.1332 31.808 13.8832 29.758 11.3165L32.1247 8.94984L29.7747 6.58317ZM23.0413 0.666504H13.0413V3.99984H23.0413V0.666504ZM16.3747 14.7332L19.708 18.0665V12.3332H16.3747V14.7332ZM3.07467 5.6665L0.958008 7.78317L5.54134 12.3832C3.95801 14.7498 3.04134 17.5998 3.04134 20.6665C3.04134 28.9498 9.74134 35.6665 18.0413 35.6665C21.108 35.6665 23.958 34.7498 26.3413 33.1665L30.508 37.3332L32.6247 35.2165L3.07467 5.6665ZM18.0413 32.3332C11.5913 32.3332 6.37467 27.1165 6.37467 20.6665C6.37467 18.5332 6.95801 16.5332 7.95801 14.7998L23.8913 30.7332C22.1747 31.7498 20.1747 32.3332 18.0413 32.3332Z" fill="#7367F0"/>
</svg>
