<svg width="20" height="22" viewBox="0 0 20 22" fill="none" xmlns="http://www.w3.org/2000/svg">
<path d="M14.49 14.25V12.5L12 15L14.49 17.5V15.75H20V14.25H14.49ZM17.51 18.5H12V20H17.51V21.75L20 19.25L17.51 16.75V18.5ZM7.5 4.25C8.6 4.25 9.5 3.35 9.5 2.25C9.5 1.15 8.6 0.25 7.5 0.25C6.4 0.25 5.5 1.15 5.5 2.25C5.5 3.35 6.4 4.25 7.5 4.25ZM3.75 7.65L1 21.75H3.1L4.85 13.75L7 15.75V21.75H9V14.2L6.95 12.15L7.55 9.15C8.85 10.75 10.8 11.75 13 11.75V9.75C11.15 9.75 9.55 8.75 8.65 7.3L7.7 5.7C7.35 5.1 6.7 4.75 6 4.75C5.75 4.75 5.5 4.8 5.25 4.9L0 7.05V11.75H2V8.4L3.75 7.65Z" fill="#4B4B4B"/>
</svg>
