<svg width="18" height="18" viewBox="0 0 18 18" fill="none" xmlns="http://www.w3.org/2000/svg">
<path d="M3.57918 8.16675H0.24585V17.3334H3.57918V8.16675Z" fill="#7367F0"/>
<path d="M12.7458 1.70841C13.2875 1.07508 14.1292 0.666748 14.9958 0.666748C16.5375 0.666748 17.7458 1.87508 17.7458 3.41675C17.7458 5.30841 15.3208 7.50008 12.7458 9.83342C10.1708 7.49175 7.74585 5.30008 7.74585 3.41675C7.74585 1.87508 8.95418 0.666748 10.4958 0.666748C11.3625 0.666748 12.2042 1.07508 12.7458 1.70841Z" fill="#7367F0"/>
<path d="M16.0792 13.1667H10.2458L8.50418 12.5584L8.77918 11.7751L10.2458 12.3334H12.5958C13.1375 12.3334 13.5792 11.8917 13.5792 11.3501C13.5792 10.9417 13.3208 10.5751 12.9375 10.4251L6.88752 8.16675H5.24585V15.6834L11.0792 17.3334L17.7542 14.8334C17.7458 13.9167 17.0042 13.1667 16.0792 13.1667Z" fill="#7367F0"/>
</svg>
