<svg width="32" height="32" viewBox="0 0 32 32" fill="none" xmlns="http://www.w3.org/2000/svg">
<rect width="32" height="32" rx="5" fill="#FF9F43" fill-opacity="0.12"/>
<path d="M19 5.5H13V7.5H19V5.5ZM15 18.5H17V12.5H15V18.5ZM23.03 11.89L24.45 10.47C24.02 9.96 23.55 9.48 23.04 9.06L21.62 10.48C20.07 9.24 18.12 8.5 16 8.5C11.03 8.5 7 12.53 7 17.5C7 22.47 11.02 26.5 16 26.5C20.98 26.5 25 22.47 25 17.5C25 15.38 24.26 13.43 23.03 11.89ZM16 24.5C12.13 24.5 9 21.37 9 17.5C9 13.63 12.13 10.5 16 10.5C19.87 10.5 23 13.63 23 17.5C23 21.37 19.87 24.5 16 24.5Z" fill="#FF9F43"/>
</svg>
