<svg width="1446" height="1030" viewBox="0 0 1446 1030" fill="none" xmlns="http://www.w3.org/2000/svg">
<g clip-path="url(#clip0_419_37500)" filter="url(#filter0_f_419_37500)">
<rect width="1440" height="1024" transform="translate(3 3)" fill="white"/>
<rect x="5.25024" y="389.121" width="132.098" height="60.516" rx="30.258" transform="rotate(-90 5.25024 389.121)" stroke="#7367F0" stroke-opacity="0.2" stroke-width="2"/>
<rect x="4" y="401.849" width="60.516" height="65.0489" rx="30.258" stroke="#7367F0" stroke-opacity="0.2" stroke-width="2"/>
<rect x="0.989979" y="1.0114" width="123.033" height="65.0484" rx="32.5242" transform="matrix(0.999934 0.0114517 -0.00995581 0.99995 82.4479 347.198)" stroke="#7367F0" stroke-opacity="0.2" stroke-width="2"/>
<rect x="76.5183" y="562.107" width="132.098" height="60.516" rx="30.258" transform="rotate(-90 76.5183 562.107)" stroke="#7367F0" stroke-opacity="0.2" stroke-width="2"/>
<rect x="-1.00989" y="0.988499" width="65.0484" height="60.5166" rx="30.2583" transform="matrix(-0.00995581 0.99995 -0.999934 -0.0114517 143.668 266.794)" stroke="#7367F0" stroke-opacity="0.2" stroke-width="2"/>
<rect x="-1.00989" y="0.988499" width="65.0484" height="60.5166" rx="30.2583" transform="matrix(-0.00995581 0.99995 -0.999934 -0.0114517 207.435 435.757)" stroke="#7367F0" stroke-opacity="0.2" stroke-width="2"/>
<rect x="1.02182" y="0.974284" width="123.037" height="65.0464" rx="32.5232" transform="matrix(0.999676 -0.0254707 0.022145 0.999755 162.502 566.318)" stroke="#7367F0" stroke-opacity="0.2" stroke-width="2"/>
<rect x="0.996673" y="0.999994" width="89.883" height="65.0464" rx="32.5232" transform="matrix(1 0 -0.00332666 0.999994 362.842 798.162)" stroke="#7367F0" stroke-opacity="0.2" stroke-width="2"/>
<rect x="-0.977531" y="1.02523" width="65.0464" height="60.5187" rx="30.2593" transform="matrix(0.022145 0.999755 -0.999676 0.0254707 152.593 568.523)" stroke="#7367F0" stroke-opacity="0.2" stroke-width="2"/>
<rect x="-0.987712" y="1.01395" width="132.096" height="60.5168" rx="30.2584" transform="matrix(0.0121901 0.999926 -0.999902 0.0140216 204.447 652.433)" stroke="#7367F0" stroke-opacity="0.2" stroke-width="2"/>
<rect x="-0.987712" y="1.01395" width="132.096" height="60.5168" rx="30.2584" transform="matrix(0.0121901 0.999926 -0.999902 0.0140216 66.7994 496.704)" stroke="#7367F0" stroke-opacity="0.2" stroke-width="2"/>
<rect x="308.021" y="711.427" width="132.098" height="60.516" rx="30.258" transform="rotate(-90 308.021 711.427)" stroke="#7367F0" stroke-opacity="0.2" stroke-width="2"/>
<rect x="387" y="781.098" width="132.098" height="60.516" rx="30.258" transform="rotate(-90 387 781.098)" stroke="#7367F0" stroke-opacity="0.2" stroke-width="2"/>
<rect x="-1.03194" y="-0.961925" width="60.5218" height="65.0435" rx="30.2609" transform="matrix(-0.999295 0.0375423 -0.0326434 -0.999467 379.889 560.544)" stroke="#7367F0" stroke-opacity="0.2" stroke-width="2"/>
<rect x="-1.02235" y="-0.973645" width="123.038" height="65.0463" rx="32.5231" transform="matrix(-0.999659 0.0260977 -0.0226902 -0.999743 287.491 321.132)" stroke="#7367F0" stroke-opacity="0.2" stroke-width="2"/>
<rect x="239.149" y="554.609" width="132.098" height="60.516" rx="30.258" transform="rotate(-90 239.149 554.609)" stroke="#7367F0" stroke-opacity="0.2" stroke-width="2"/>
<rect x="0.976969" y="-1.02584" width="65.0463" height="60.5188" rx="30.2594" transform="matrix(-0.0226902 -0.999743 0.999659 -0.0260977 220.351 413.112)" stroke="#7367F0" stroke-opacity="0.2" stroke-width="2"/>
<rect x="0.976969" y="-1.02584" width="65.0463" height="60.5188" rx="30.2594" transform="matrix(-0.0226902 -0.999743 0.999659 -0.0260977 322.877 332.653)" stroke="#7367F0" stroke-opacity="0.2" stroke-width="2"/>
<rect x="0.976969" y="-1.02584" width="65.0463" height="60.5188" rx="30.2594" transform="matrix(-0.0226902 -0.999743 0.999659 -0.0260977 396.546 496.585)" stroke="#7367F0" stroke-opacity="0.2" stroke-width="2"/>
<rect x="0.999977" y="-1.00673" width="132.077" height="60.5269" rx="30.2634" transform="matrix(0 -1 0.999977 -0.00672727 315.159 477.664)" stroke="#7367F0" stroke-opacity="0.2" stroke-width="2"/>
<rect x="0.999977" y="-1.00673" width="132.077" height="60.5269" rx="30.2634" transform="matrix(0 -1 0.999977 -0.00672727 395.007 401.485)" stroke="#7367F0" stroke-opacity="0.2" stroke-width="2"/>
<rect x="1.02182" y="0.974284" width="123.037" height="65.0464" rx="32.5232" transform="matrix(0.999676 -0.0254707 0.022145 0.999755 2.97876 648.181)" stroke="#7367F0" stroke-opacity="0.2" stroke-width="2"/>
<rect x="-1.01209" y="-0.985904" width="60.5168" height="65.0481" rx="30.2584" transform="matrix(-0.999902 0.0140216 -0.0121901 -0.999926 280.659 712.216)" stroke="#7367F0" stroke-opacity="0.2" stroke-width="2"/>
<rect x="-1.01209" y="-0.985904" width="60.5168" height="65.0481" rx="30.2584" transform="matrix(-0.999902 0.0140216 -0.0121901 -0.999926 124.677 784.6)" stroke="#7367F0" stroke-opacity="0.2" stroke-width="2"/>
<rect x="-0.999812" y="-1.00022" width="123.032" height="65.0489" rx="32.5244" transform="matrix(-1 -0.000216284 0.000188029 -1 126.032 1023.35)" stroke="#7367F0" stroke-opacity="0.2" stroke-width="2"/>
<rect x="1.00019" y="-0.999784" width="65.0489" height="60.516" rx="30.258" transform="matrix(0.000188029 -1 1 0.000216284 140.034 1026.7)" stroke="#7367F0" stroke-opacity="0.2" stroke-width="2"/>
<rect x="1.01008" y="-0.988281" width="132.097" height="60.5166" rx="30.2583" transform="matrix(0.0101438 -0.999949 0.999932 0.011668 90.0256 941.522)" stroke="#7367F0" stroke-opacity="0.2" stroke-width="2"/>
<rect x="-0.999812" y="-1.00022" width="123.032" height="65.0489" rx="32.5244" transform="matrix(-1 -0.000216284 0.000188029 -1 287.338 946.953)" stroke="#7367F0" stroke-opacity="0.2" stroke-width="2"/>
<rect x="0.989788" y="1.01162" width="60.5166" height="65.0483" rx="30.2583" transform="matrix(0.999932 0.011668 -0.0101438 0.999949 11.2076 875.757)" stroke="#7367F0" stroke-opacity="0.2" stroke-width="2"/>
<rect x="0.989788" y="1.01162" width="60.5166" height="65.0483" rx="30.2583" transform="matrix(0.999932 0.011668 -0.0101438 0.999949 168.761 807.401)" stroke="#7367F0" stroke-opacity="0.2" stroke-width="2"/>
<rect x="0.977724" y="-1.02501" width="132.093" height="60.5186" rx="30.2593" transform="matrix(-0.021957 -0.999759 0.999681 -0.0252545 294.349 855.567)" stroke="#7367F0" stroke-opacity="0.2" stroke-width="2"/>
<rect x="1.02164" y="0.974504" width="60.5186" height="65.0464" rx="30.2593" transform="matrix(0.999681 -0.0252545 0.021957 0.999759 292.539 866.391)" stroke="#7367F0" stroke-opacity="0.2" stroke-width="2"/>
<rect x="4.05737" y="864.634" width="111.983" height="60.5161" rx="30.258" transform="rotate(-90 4.05737 864.634)" stroke="#7367F0" stroke-opacity="0.2" stroke-width="2"/>
<rect x="1.01191" y="0.986123" width="123.034" height="65.0481" rx="32.5241" transform="matrix(0.999905 -0.0138053 0.0120021 0.999928 225.558 958.346)" stroke="#7367F0" stroke-opacity="0.2" stroke-width="2"/>
<rect x="365.64" y="1014.25" width="132.098" height="60.516" rx="30.258" transform="rotate(-90 365.64 1014.25)" stroke="#7367F0" stroke-opacity="0.2" stroke-width="2"/>
<rect x="-0.987903" y="1.01373" width="65.0481" height="60.5168" rx="30.2584" transform="matrix(0.0120021 0.999928 -0.999905 0.0138053 280.604 743.444)" stroke="#7367F0" stroke-opacity="0.2" stroke-width="2"/>
<rect x="-0.987903" y="1.01373" width="65.0481" height="60.5168" rx="30.2584" transform="matrix(0.0120021 0.999928 -0.999905 0.0138053 497.73 875.964)" stroke="#7367F0" stroke-opacity="0.2" stroke-width="2"/>
<rect x="-1" y="-1" width="132.098" height="58.0154" rx="29.0077" transform="matrix(0 -1 -1 0 1439.75 388.121)" stroke="#7367F0" stroke-opacity="0.2" stroke-width="2"/>
<rect x="-1" y="1" width="58.0154" height="65.0489" rx="29.0077" transform="matrix(-1 0 0 1 1441 400.848)" stroke="#7367F0" stroke-opacity="0.2" stroke-width="2"/>
<rect x="-0.990414" y="1.01194" width="117.484" height="65.0481" rx="32.524" transform="matrix(-0.999928 0.0119836 0.00951392 0.999955 1365.1 347.221)" stroke="#7367F0" stroke-opacity="0.2" stroke-width="2"/>
<rect x="-1" y="-1" width="132.098" height="58.0154" rx="29.0077" transform="matrix(0 -1 -1 0 1372.23 561.107)" stroke="#7367F0" stroke-opacity="0.2" stroke-width="2"/>
<rect x="1.00944" y="0.987971" width="65.0481" height="57.7419" rx="28.8709" transform="matrix(0.00951392 0.999955 0.999928 -0.0119836 1308.56 264.775)" stroke="#7367F0" stroke-opacity="0.2" stroke-width="2"/>
<rect x="1.00944" y="0.987971" width="65.0481" height="57.7419" rx="28.8709" transform="matrix(0.00951392 0.999955 0.999928 -0.0119836 1223.32 264.775)" stroke="#7367F0" stroke-opacity="0.2" stroke-width="2"/>
<rect x="1.00944" y="0.987971" width="65.0481" height="57.7419" rx="28.8709" transform="matrix(0.00951392 0.999955 0.999928 -0.0119836 1222.01 417.706)" stroke="#7367F0" stroke-opacity="0.2" stroke-width="2"/>
<rect x="-1.02081" y="0.973123" width="117.491" height="65.045" rx="32.5225" transform="matrix(-0.999645 -0.026653 -0.0211624 0.999776 1290.53 571.628)" stroke="#7367F0" stroke-opacity="0.2" stroke-width="2"/>
<rect x="-0.994508" y="0.999985" width="117.491" height="65.045" rx="32.5225" transform="matrix(-1 0 0.00549214 0.999985 1114 564.585)" stroke="#7367F0" stroke-opacity="0.2" stroke-width="2"/>
<rect x="-0.994508" y="0.999985" width="76.8077" height="33.0005" rx="16.5003" transform="matrix(-1 0 0.00549214 0.999985 1153.81 342)" stroke="#7367F0" stroke-opacity="0.2" stroke-width="2"/>
<rect x="-1.02081" y="0.973123" width="63.0197" height="52.9782" rx="26.4891" transform="matrix(-0.999645 -0.026653 -0.0211624 0.999776 972.362 888.788)" stroke="#7367F0" stroke-opacity="0.2" stroke-width="2"/>
<rect x="0.978482" y="1.02643" width="65.045" height="57.7454" rx="28.8727" transform="matrix(-0.0211624 0.999776 0.999645 0.026653 1300.09 566.567)" stroke="#7367F0" stroke-opacity="0.2" stroke-width="2"/>
<rect x="0.988243" y="1.01461" width="132.095" height="57.7423" rx="28.8712" transform="matrix(-0.0116491 0.999932 0.999892 0.0146728 1250.52 650.457)" stroke="#7367F0" stroke-opacity="0.2" stroke-width="2"/>
<rect x="0.988243" y="1.01461" width="132.095" height="57.7423" rx="28.8712" transform="matrix(-0.0116491 0.999932 0.999892 0.0146728 1382.05 494.728)" stroke="#7367F0" stroke-opacity="0.2" stroke-width="2"/>
<rect x="1" y="1" width="132.098" height="58.0154" rx="29.0077" transform="matrix(0 1 1 0 1062.11 643.902)" stroke="#7367F0" stroke-opacity="0.2" stroke-width="2"/>
<rect x="1" y="1" width="132.098" height="58.0154" rx="29.0077" transform="matrix(0 1 1 0 988 736)" stroke="#7367F0" stroke-opacity="0.2" stroke-width="2"/>
<rect x="0.978157" y="-1.02454" width="43.0741" height="41.6399" rx="20.82" transform="matrix(0.999693 -0.0247701 -0.0215357 -0.999768 1126.92 588.092)" stroke="#7367F0" stroke-opacity="0.2" stroke-width="2"/>
<rect x="0.978157" y="-1.02454" width="43.0741" height="41.6399" rx="20.82" transform="matrix(0.999693 -0.0247701 -0.0215357 -0.999768 1124.92 672.092)" stroke="#7367F0" stroke-opacity="0.2" stroke-width="2"/>
<rect x="0.978157" y="-1.02454" width="43.0741" height="41.6399" rx="20.82" transform="matrix(0.999693 -0.0247701 -0.0215357 -0.999768 995.918 696.722)" stroke="#7367F0" stroke-opacity="0.2" stroke-width="2"/>
<rect x="0.978157" y="-1.02454" width="58.0178" height="65.0465" rx="29.0089" transform="matrix(0.999693 -0.0247701 -0.0215357 -0.999768 994.422 539.493)" stroke="#7367F0" stroke-opacity="0.2" stroke-width="2"/>
<rect x="1.00324" y="-0.999995" width="58.0178" height="65.0465" rx="29.0089" transform="matrix(1 0 0.00323519 -0.999995 1004.61 342.782)" stroke="#7367F0" stroke-opacity="0.2" stroke-width="2"/>
<rect x="1.0057" y="-0.999984" width="117.493" height="65.0437" rx="32.5218" transform="matrix(1 0 0.00570258 -0.999984 1084.09 319.222)" stroke="#7367F0" stroke-opacity="0.2" stroke-width="2"/>
<rect x="1.0057" y="-0.999984" width="49.8059" height="97.0016" rx="24.9029" transform="matrix(1 0 0.00570258 -0.999984 996.824 459)" stroke="#7367F0" stroke-opacity="0.2" stroke-width="2"/>
<rect x="1" y="1" width="132.098" height="58.0154" rx="29.0077" transform="matrix(0 1 1 0 1133.38 405.267)" stroke="#7367F0" stroke-opacity="0.2" stroke-width="2"/>
<rect x="-1.03037" y="-0.962771" width="65.0437" height="57.7466" rx="28.8733" transform="matrix(-0.0310474 -0.999518 -0.999325 0.0367467 1236.81 409.581)" stroke="#7367F0" stroke-opacity="0.2" stroke-width="2"/>
<rect x="-1.03037" y="-0.962771" width="65.0437" height="57.7466" rx="28.8733" transform="matrix(-0.0310474 -0.999518 -0.999325 0.0367467 1266.55 560.396)" stroke="#7367F0" stroke-opacity="0.2" stroke-width="2"/>
<rect x="-0.999999" y="-1.00127" width="132.097" height="57.7415" rx="28.8707" transform="matrix(0 -1 -0.999999 -0.00127364 1118.67 522.935)" stroke="#7367F0" stroke-opacity="0.2" stroke-width="2"/>
<rect x="-1.02081" y="0.973123" width="117.491" height="65.045" rx="32.5225" transform="matrix(-0.999645 -0.026653 -0.0211624 0.999776 1440.98 648.128)" stroke="#7367F0" stroke-opacity="0.2" stroke-width="2"/>
<rect x="1.01154" y="-0.985259" width="57.7423" height="65.0477" rx="28.8712" transform="matrix(0.999892 0.0146728 0.0116491 -0.999932 1175.73 712.188)" stroke="#7367F0" stroke-opacity="0.2" stroke-width="2"/>
<rect x="1.01154" y="-0.985259" width="57.7423" height="65.0477" rx="28.8712" transform="matrix(0.999892 0.0146728 0.0116491 -0.999932 1324.79 784.572)" stroke="#7367F0" stroke-opacity="0.2" stroke-width="2"/>
<rect x="0.99982" y="-1.00023" width="117.482" height="65.0489" rx="32.5244" transform="matrix(1 -0.000226331 -0.000179682 -1 1323.52 1023.35)" stroke="#7367F0" stroke-opacity="0.2" stroke-width="2"/>
<rect x="-1.00018" y="-0.999774" width="65.0489" height="57.741" rx="28.8705" transform="matrix(-0.000179682 -1 -1 0.000226331 1311.96 1024.7)" stroke="#7367F0" stroke-opacity="0.2" stroke-width="2"/>
<rect x="-1.00962" y="-0.987743" width="132.096" height="57.7419" rx="28.871" transform="matrix(-0.0096936 -0.999953 -0.999926 0.0122099 1359.73 939.504)" stroke="#7367F0" stroke-opacity="0.2" stroke-width="2"/>
<rect x="0.99982" y="-1.00023" width="117.482" height="65.0489" rx="32.5244" transform="matrix(1 -0.000226331 -0.000179682 -1 1169.37 946.953)" stroke="#7367F0" stroke-opacity="0.2" stroke-width="2"/>
<rect x="-0.990232" y="1.01216" width="57.7419" height="65.0481" rx="28.871" transform="matrix(-0.999926 0.0122099 0.0096936 0.999953 1433.18 875.78)" stroke="#7367F0" stroke-opacity="0.2" stroke-width="2"/>
<rect x="-0.990232" y="1.01216" width="57.7419" height="65.0481" rx="28.871" transform="matrix(-0.999926 0.0122099 0.0096936 0.999953 1282.62 807.425)" stroke="#7367F0" stroke-opacity="0.2" stroke-width="2"/>
<rect x="-0.978668" y="-1.02621" width="132.09" height="57.7453" rx="28.8727" transform="matrix(0.0209828 -0.99978 -0.999651 -0.0264268 1192.28 854.95)" stroke="#7367F0" stroke-opacity="0.2" stroke-width="2"/>
<rect x="-1.02063" y="0.973353" width="57.7453" height="65.045" rx="28.8727" transform="matrix(-0.999651 -0.0264268 -0.0209828 0.99978 1164.27 866.338)" stroke="#7367F0" stroke-opacity="0.2" stroke-width="2"/>
<rect x="-1" y="-1" width="111.983" height="58.0154" rx="29.0077" transform="matrix(0 -1 -1 0 1441 864.168)" stroke="#7367F0" stroke-opacity="0.2" stroke-width="2"/>
<rect x="-1.01137" y="0.985488" width="117.485" height="65.0477" rx="32.5239" transform="matrix(-0.999896 -0.0144465 -0.0114694 0.999934 1228.3 958.317)" stroke="#7367F0" stroke-opacity="0.2" stroke-width="2"/>
<rect x="-0.978668" y="-1.02621" width="132.09" height="57.7453" rx="28.8727" transform="matrix(0.0209828 -0.99978 -0.999651 -0.0264268 1099.13 1024.72)" stroke="#7367F0" stroke-opacity="0.2" stroke-width="2"/>
<rect x="-0.978668" y="-1.02621" width="87.8425" height="57.7453" rx="28.8727" transform="matrix(0.0209828 -0.99978 -0.999651 -0.0264268 895.955 955.539)" stroke="#7367F0" stroke-opacity="0.2" stroke-width="2"/>
<rect x="-0.978668" y="-1.02621" width="87.8425" height="57.7453" rx="28.8727" transform="matrix(0.0209828 -0.99978 -0.999651 -0.0264268 452.741 605.37)" stroke="#7367F0" stroke-opacity="0.2" stroke-width="2"/>
<rect x="0.988426" y="1.01438" width="65.0477" height="57.7423" rx="28.8711" transform="matrix(-0.0114694 0.999934 0.999896 0.0144465 1060.77 802.173)" stroke="#7367F0" stroke-opacity="0.2" stroke-width="2"/>
<rect x="0.988426" y="1.01438" width="65.0477" height="57.7423" rx="28.8711" transform="matrix(-0.0114694 0.999934 0.999896 0.0144465 976.504 915.559)" stroke="#7367F0" stroke-opacity="0.2" stroke-width="2"/>
<rect x="0.99982" y="-1.00023" width="117.482" height="65.0489" rx="32.5244" transform="matrix(1 -0.000226331 -0.000179682 -1 860.899 1023.39)" stroke="#7367F0" stroke-opacity="0.2" stroke-width="2"/>
<rect x="-1.00018" y="-0.999774" width="65.0489" height="57.741" rx="28.8705" transform="matrix(-0.000179682 -1 -1 0.000226331 849.341 1024.74)" stroke="#7367F0" stroke-opacity="0.2" stroke-width="2"/>
<rect x="0.99982" y="-1.00023" width="117.482" height="65.0489" rx="32.5244" transform="matrix(1 -0.000226331 -0.000179682 -1 706.754 946.993)" stroke="#7367F0" stroke-opacity="0.2" stroke-width="2"/>
<rect x="-1.02063" y="0.973353" width="57.7453" height="65.045" rx="28.8727" transform="matrix(-0.999651 -0.0264268 -0.0209828 0.99978 701.654 866.379)" stroke="#7367F0" stroke-opacity="0.2" stroke-width="2"/>
<rect x="-1.01137" y="0.985488" width="117.485" height="65.0477" rx="32.5239" transform="matrix(-0.999896 -0.0144465 -0.0114694 0.999934 765.68 958.358)" stroke="#7367F0" stroke-opacity="0.2" stroke-width="2"/>
<rect x="-1.01137" y="0.985488" width="120.533" height="58.3434" rx="29.1717" transform="matrix(-0.999896 -0.0144465 -0.0114694 0.999934 560.092 956.384)" stroke="#7367F0" stroke-opacity="0.2" stroke-width="2"/>
<rect x="-0.999997" y="-1.00229" width="132.095" height="57.7426" rx="28.8713" transform="matrix(0 -1 -0.999997 -0.00229359 630.403 1024.08)" stroke="#7367F0" stroke-opacity="0.2" stroke-width="2"/>
<rect x="0.988426" y="1.01438" width="65.0477" height="57.7423" rx="28.8711" transform="matrix(-0.0114694 0.999934 0.999896 0.0144465 507.634 874.029)" stroke="#7367F0" stroke-opacity="0.2" stroke-width="2"/>
</g>
<defs>
<filter id="filter0_f_419_37500" x="0" y="0" width="1446" height="1030" filterUnits="userSpaceOnUse" color-interpolation-filters="sRGB">
<feFlood flood-opacity="0" result="BackgroundImageFix"/>
<feBlend mode="normal" in="SourceGraphic" in2="BackgroundImageFix" result="shape"/>
<feGaussianBlur stdDeviation="1.5" result="effect1_foregroundBlur_419_37500"/>
</filter>
<clipPath id="clip0_419_37500">
<rect width="1440" height="1024" fill="white" transform="translate(3 3)"/>
</clipPath>
</defs>
</svg>
